<svg data-name="Layer 1" xmlns="http://www.w3.org/2000/svg" viewBox="0 0 425 300"><title>knowledge-illustrations</title><path d="M248 19H30.69a19.34 19.34 0 0 0-19.34 19.34v132.32A19.34 19.34 0 0 0 30.69 190H248a19.34 19.34 0 0 0 19.34-19.34V38.34A19.34 19.34 0 0 0 248 19z" fill="#006a5a"/><path d="M257.35 170.66A9.34 9.34 0 0 1 248 180H30.69a9.34 9.34 0 0 1-9.34-9.34V43.43a9.37 9.37 0 0 1 .12-1.43h235.76a9.37 9.37 0 0 1 .12 1.43z" fill="#fff"/><circle cx="25.67" cy="30.87" r="3.61" fill="none"/><circle cx="37.24" cy="30.87" r="3.61" fill="none"/><path fill="none" d="M190.78 148.54l-.98.98 2.31 2.31-2.31 2.31.98.98 3.28-3.29-3.28-3.29zM117.69 148.54l-.98.98 2.31 2.31-2.31 2.31.98.98 3.28-3.29-3.28-3.29z"/><circle cx="48.8" cy="30.87" r="3.61" fill="none"/><path d="M21.47 42a9.37 9.37 0 0 0-.12 1.43v127.23a9.34 9.34 0 0 0 9.34 9.34H248a9.34 9.34 0 0 0 9.34-9.34V43.43a9.37 9.37 0 0 0-.12-1.43zM72.7 155a1.7 1.7 0 0 1-1.7 1.7H37.49a1.7 1.7 0 0 1-1.7-1.7v-6.34a1.7 1.7 0 0 1 1.7-1.7H71a1.7 1.7 0 0 1 1.7 1.7zm12.93-13.52H36.26v-4.87h49.37zm10.76-8.32H36.26v-4.87H96.4zm-8.13-13.2v4.87h-52v-4.87zm-52-3.45v-4.87h56.65v4.87zm63.34-11.6a1.86 1.86 0 0 1-1.86 1.86H37.51a1.86 1.86 0 0 1-1.86-1.86v-38A1.86 1.86 0 0 1 37.51 65h60.24a1.86 1.86 0 0 1 1.86 1.86zM143.05 155a1.7 1.7 0 0 1-1.7 1.7h-33.51a1.7 1.7 0 0 1-1.7-1.7v-6.34a1.7 1.7 0 0 1 1.7-1.7h33.52a1.7 1.7 0 0 1 1.7 1.7zM156 141.44h-49.39v-4.87H156zm10.76-8.32h-60.15v-4.87h60.13zm-8.13-13.2v4.87h-52v-4.87zm-52-3.45v-4.87h56.64v4.87zM170 104.86a1.86 1.86 0 0 1-1.86 1.86h-60.28a1.86 1.86 0 0 1-1.86-1.86v-38a1.86 1.86 0 0 1 1.86-1.86h60.24a1.86 1.86 0 0 1 1.9 1.86zM216.14 155a1.7 1.7 0 0 1-1.7 1.7h-33.51a1.7 1.7 0 0 1-1.7-1.7v-6.34a1.7 1.7 0 0 1 1.7-1.7h33.52a1.7 1.7 0 0 1 1.7 1.7zm12.93-13.52H179.7v-4.87h49.37zm10.76-8.32H179.7v-4.87h60.13zm-8.13-13.2v4.87h-52v-4.87zm-52-3.45v-4.87h56.64v4.87zm63.3-11.65a1.86 1.86 0 0 1-1.86 1.86h-60.19a1.86 1.86 0 0 1-1.86-1.86v-38a1.86 1.86 0 0 1 1.86-1.86h60.24a1.86 1.86 0 0 1 1.81 1.86z" fill="none"/><path fill="none" d="M47.34 148.54l-.98.98 2.31 2.31-2.31 2.31.98.98 3.29-3.29-3.29-3.29zM57.87 149.52l2.31 2.31-2.31 2.31.98.98 3.28-3.29-3.28-3.29-.98.98z"/><path fill="none" d="M55.01 148.54l-.98.98 2.31 2.31-2.31 2.31.98.98 3.29-3.29-3.29-3.29z"/><path fill="none" d="M51.17 148.54l-.97.98 2.31 2.31-2.31 2.31.97.98 3.29-3.29-3.29-3.29z"/><rect x="35.65" y="65" width="63.95" height="41.72" rx="1.86" ry="1.86" fill="#bd965a"/><path fill="#333" d="M36.26 111.59H92.9v4.87H36.26zM36.26 119.92h52v4.87h-52zM36.26 128.24h60.13v4.87H36.26zM36.26 136.57h49.37v4.87H36.26z"/><path d="M71 146.92H37.49a1.7 1.7 0 0 0-1.7 1.7V155a1.7 1.7 0 0 0 1.7 1.7H71a1.7 1.7 0 0 0 1.7-1.7v-6.34a1.7 1.7 0 0 0-1.7-1.74zm-24.64 7.22l2.31-2.31-2.31-2.31 1-1 3.29 3.29-3.29 3.29zm3.84 0l2.31-2.31-2.31-2.31 1-1 3.29 3.29-3.29 3.29zm3.84 0l2.31-2.31-2.35-2.31 1-1 3.29 3.29-3.29 3.31zm4.81 1l-1-1 2.31-2.31-2.31-2.31 1-1 3.29 3.29z" fill="#bd965a"/><path fill="none" d="M122.89 148.54l-.97.98 2.31 2.31-2.31 2.31.97.98 3.29-3.29-3.29-3.29z"/><path fill="none" d="M126.73 148.54l-.98.98 2.31 2.31-2.31 2.31.98.98 3.29-3.29-3.29-3.29z"/><path fill="none" d="M129.59 149.52l2.31 2.31-2.31 2.31.97.98 3.29-3.29-3.29-3.29-.97.98z"/><rect x="107.37" y="65" width="63.95" height="41.72" rx="1.86" ry="1.86" fill="#bd965a"/><path fill="#333" d="M107.98 111.59h56.64v4.87h-56.64zM107.98 119.92h52v4.87h-52zM107.98 128.24h60.13v4.87h-60.13zM107.98 136.57h49.37v4.87h-49.37z"/><path d="M142.73 146.92h-33.52a1.7 1.7 0 0 0-1.7 1.7V155a1.7 1.7 0 0 0 1.7 1.7h33.52a1.7 1.7 0 0 0 1.7-1.7v-6.34a1.7 1.7 0 0 0-1.7-1.74zm-24.64 7.22l2.31-2.31-2.31-2.31 1-1 3.29 3.29-3.29 3.29zm3.84 0l2.31-2.31-2.31-2.31 1-1 3.29 3.29-3.29 3.29zm3.84 0l2.31-2.31-2.31-2.31 1-1 3.29 3.29-3.29 3.29zm4.81 1l-1-1 2.31-2.31-2.31-2.31 1-1 3.29 3.29z" fill="#bd965a"/><path fill="none" d="M194.61 148.54l-.97.98 2.31 2.31-2.31 2.31.97.98 3.29-3.29-3.29-3.29z"/><path fill="none" d="M198.45 148.54l-.98.98 2.31 2.31-2.31 2.31.98.98 3.29-3.29-3.29-3.29z"/><path fill="none" d="M201.31 149.52l2.31 2.31-2.31 2.31.97.98 3.29-3.29-3.29-3.29-.97.98z"/><rect x="179.09" y="65" width="63.95" height="41.72" rx="1.86" ry="1.86" fill="#bd965a"/><path fill="#333" d="M179.7 111.59h56.64v4.87H179.7zM179.7 119.92h52v4.87h-52zM179.7 128.24h60.13v4.87H179.7zM179.7 136.57h49.37v4.87H179.7z"/><path d="M214.44 146.92h-33.51a1.7 1.7 0 0 0-1.7 1.7V155a1.7 1.7 0 0 0 1.7 1.7h33.52a1.7 1.7 0 0 0 1.7-1.7v-6.34a1.7 1.7 0 0 0-1.71-1.74zm-24.64 7.22l2.31-2.31-2.31-2.31 1-1 3.29 3.29-3.29 3.29zm3.84 0l2.31-2.31-2.31-2.31 1-1 3.29 3.29-3.29 3.29zm3.84 0l2.31-2.31-2.31-2.31 1-1 3.29 3.29-3.29 3.29zm4.81 1l-1-1 2.31-2.31-2.31-2.31 1-1 3.29 3.29z" fill="#bd965a"/><path d="M408 205.64h-63.38a6.34 6.34 0 0 0-6.33 6.33v38.59a6.34 6.34 0 0 0 6.33 6.33H408a6.34 6.34 0 0 0 6.33-6.33V212a6.34 6.34 0 0 0-6.33-6.36z" fill="#006a5a"/><path d="M410 250.57a2 2 0 0 1-2 2h-63.38a2 2 0 0 1-2-2v-36.83H410z" fill="#fff"/><path d="M342.58 250.57a2 2 0 0 0 2 2H408a2 2 0 0 0 2-2v-36.83h-67.42zm26-28.58h36.31v3.7h-36.26zm0 6.34H400V232h-31.4zm0 6.34h36.31v3.7h-36.26zm0 6.34h29.81v3.7h-29.76zM348.3 223a1.29 1.29 0 0 1 1.29-1.29h14.61a1.29 1.29 0 0 1 1.29 1.29v20.71a1.29 1.29 0 0 1-1.29 1.29h-14.61a1.29 1.29 0 0 1-1.29-1.29z" fill="none"/><rect x="348.3" y="221.71" width="17.18" height="23.28" rx="1.29" ry="1.29" fill="#bd965a"/><path fill="#333" d="M368.63 228.33h31.4v3.7h-31.4zM368.63 234.68h36.31v3.7h-36.31zM368.63 221.99h36.31v3.7h-36.31zM368.63 241.02h29.81v3.7h-29.81z"/><circle cx="344.25" cy="209.83" r="1.46" fill="#f1f1f2"/><circle cx="348.91" cy="209.83" r="1.46" fill="#f1f1f2"/><circle cx="353.58" cy="209.83" r="1.46" fill="#f1f1f2"/><path d="M408 127h-63.38a6.34 6.34 0 0 0-6.33 6.33v38.57a6.34 6.34 0 0 0 6.33 6.33H408a6.34 6.34 0 0 0 6.33-6.33v-38.59A6.34 6.34 0 0 0 408 127z" fill="#006a5a"/><path d="M410 171.9a2 2 0 0 1-2 2h-63.38a2 2 0 0 1-2-2v-36.83H410z" fill="#fff"/><path d="M342.58 171.9a2 2 0 0 0 2 2H408a2 2 0 0 0 2-2v-36.83h-67.42zm45.22-28.29c0-.3.58-.55 1.29-.55h14.61c.71 0 1.29.25 1.29.55v8.85c0 .3-.58.55-1.29.55h-14.61c-.71 0-1.29-.25-1.29-.55zm-.25 13.25c0-.3.58-.55 1.29-.55h14.61c.71 0 1.29.25 1.29.55v8.85c0 .3-.58.55-1.29.55h-14.61c-.71 0-1.29-.25-1.29-.55zm-39.42-13.56h36.31v3.7h-36.31zm0 6.34h31.4v3.7h-31.4zm0 6.34h36.31v3.7h-36.31zm0 6.34h29.81V166h-29.81z" fill="none"/><path d="M389.09 153h14.61c.71 0 1.29-.25 1.29-.55v-8.85c0-.3-.58-.55-1.29-.55h-14.61c-.71 0-1.29.25-1.29.55v8.85c0 .32.58.55 1.29.55zM388.84 166.27h14.61c.71 0 1.29-.25 1.29-.55v-8.85c0-.3-.58-.55-1.29-.55h-14.61c-.71 0-1.29.25-1.29.55v8.85c0 .28.58.55 1.29.55z" fill="#bd965a"/><path fill="#333" d="M348.13 149.65h31.4v3.7h-31.4zM348.13 155.99h36.31v3.7h-36.31zM348.13 143.3h36.31v3.7h-36.31zM348.13 162.34h29.81v3.7h-29.81z"/><circle cx="344.25" cy="131.16" r="1.46" fill="#f1f1f2"/><circle cx="348.91" cy="131.16" r="1.46" fill="#f1f1f2"/><circle cx="353.58" cy="131.16" r="1.46" fill="#f1f1f2"/><path d="M408 43.67h-63.38a6.34 6.34 0 0 0-6.34 6.33v38.59a6.34 6.34 0 0 0 6.33 6.33H408a6.34 6.34 0 0 0 6.33-6.33V50a6.34 6.34 0 0 0-6.33-6.33z" fill="#006a5a"/><path d="M410 88.59a2 2 0 0 1-2 2h-63.38a2 2 0 0 1-2-2V51.76H410z" fill="#fff"/><path d="M342.58 88.59a2 2 0 0 0 2 2H408a2 2 0 0 0 2-2V51.76h-67.42zm50.36-2.37H350.4v-3.37h42.54zm9.27-5.77H350.4v-3.37h51.81zm-51.81-5.76v-3.37h44.81v3.38zm36.17-17.11a1.29 1.29 0 0 1 1.29-1.29H401a1.29 1.29 0 0 1 1.29 1.29v7.66a1.29 1.29 0 0 1-1.29 1.29h-13.15a1.29 1.29 0 0 1-1.29-1.29zm-18.1 0a1.29 1.29 0 0 1 1.29-1.29h13.11a1.29 1.29 0 0 1 1.29 1.29v7.66a1.29 1.29 0 0 1-1.29 1.29h-13.11a1.29 1.29 0 0 1-1.29-1.29zm-18.1 0a1.29 1.29 0 0 1 1.29-1.29h13.11a1.29 1.29 0 0 1 1.23 1.29v7.66a1.29 1.29 0 0 1-1.29 1.29h-13.05a1.29 1.29 0 0 1-1.29-1.29z" fill="none"/><rect x="350.37" y="56.3" width="15.68" height="10.23" rx="1.29" ry="1.29" fill="#bd965a"/><rect x="368.47" y="56.3" width="15.68" height="10.23" rx="1.29" ry="1.29" fill="#bd965a"/><rect x="386.57" y="56.3" width="15.68" height="10.23" rx="1.29" ry="1.29" fill="#bd965a"/><path fill="#333" d="M350.4 71.32h44.81v3.38H350.4zM350.4 77.08h51.81v3.38H350.4zM350.4 82.85h42.54v3.38H350.4z"/><circle cx="343.9" cy="47.67" r="1.46" fill="#f2f2f2"/><circle cx="348.56" cy="47.67" r="1.46" fill="#f2f2f2"/><circle cx="353.23" cy="47.67" r="1.46" fill="#f2f2f2"/><path d="M317.56 223.85c-11.9-13.82-19.57-40.34-20-69.74h15.05l-4.45 7.66L333 151.61l-24.87-10.16 4.45 7.66h-15.05c.46-29.4 8.13-55.93 20-69.74l-.53 8.17 17.75-20.17-26.8 2 7.46 4.92c-13.63 14.25-22.48 43.19-22.92 75.13H225a2.5 2.5 0 0 0 0 5h67.53c.54 31.71 9.36 60.4 22.91 74.56l-7.44 4.9 26.8 2-17.8-20.2z" fill="#006a5a"/><circle cx="48.8" cy="30.87" r="3.61" fill="#fff"/><circle cx="37.24" cy="30.87" r="3.61" fill="#fff"/><circle cx="25.67" cy="30.87" r="3.61" fill="#fff"/><path d="M81.4 235H25.23a5.62 5.62 0 0 0-5.61 5.61v34.2a5.62 5.62 0 0 0 5.61 5.61H81.4a5.62 5.62 0 0 0 5.6-5.63v-34.2a5.62 5.62 0 0 0-5.6-5.59z" fill="#006a5a"/><path d="M83.21 274.79a1.8 1.8 0 0 1-1.8 1.8H25.23a1.8 1.8 0 0 1-1.8-1.8v-32.64h59.78z" fill="#fff"/><path d="M23.43 274.79a1.8 1.8 0 0 0 1.8 1.8H81.4a1.8 1.8 0 0 0 1.8-1.8v-32.64H23.43z" fill="none"/><path d="M23.43 274.79a1.8 1.8 0 0 0 1.8 1.8H81.4a1.8 1.8 0 0 0 1.8-1.8v-32.64H23.43zm40.08-25.07c0-.27.51-.49 1.14-.49h12.94c.63 0 1.14.22 1.14.49v7.85c0 .27-.51.49-1.14.49H64.65c-.63 0-1.14-.22-1.14-.49zm-.22 11.74c0-.27.51-.49 1.14-.49h12.94c.63 0 1.14.22 1.14.49v7.85c0 .27-.51.49-1.14.49H64.42c-.63 0-1.14-.22-1.14-.49zm-34.95-12h32.18v3.28H28.34zm0 5.62h27.82v3.28H28.34zm0 5.62h32.18v3.3H28.34zm0 5.62h26.42v3.28H28.34z" fill="none"/><path d="M64.65 258.06h12.94c.63 0 1.14-.22 1.14-.49v-7.85c0-.27-.51-.49-1.14-.49H64.65c-.63 0-1.14.22-1.14.49v7.85c0 .27.49.49 1.14.49zM64.42 269.8h12.95c.63 0 1.14-.22 1.14-.49v-7.85c0-.27-.51-.49-1.14-.49H64.42c-.63 0-1.14.22-1.14.49v7.85c0 .27.52.49 1.14.49z" fill="#bd965a"/><path fill="#333" d="M28.34 255.07h27.83v3.28H28.34zM28.34 260.69h32.18v3.28H28.34zM28.34 249.45h32.18v3.28H28.34zM28.34 266.32h26.42v3.28H28.34z"/><circle cx="24.9" cy="238.68" r="1.29" fill="#f1f1f2"/><circle cx="29.04" cy="238.68" r="1.29" fill="#f1f1f2"/><circle cx="33.17" cy="238.68" r="1.29" fill="#f1f1f2"/><path d="M55.82 208v-43.7a2.5 2.5 0 0 0-5 0V208l-7.66-4.45 10.16 24.87 10.16-24.87zM151.85 235.57H95.67a5.62 5.62 0 0 0-5.61 5.61v34.2a5.62 5.62 0 0 0 5.61 5.62h56.18a5.62 5.62 0 0 0 5.61-5.61v-34.2a5.62 5.62 0 0 0-5.61-5.62z" fill="#006a5a"/><path d="M153.65 275.39a1.8 1.8 0 0 1-1.8 1.8H95.67a1.8 1.8 0 0 1-1.8-1.8v-32.65h59.78z" fill="#fff"/><path d="M93.87 275.39a1.8 1.8 0 0 0 1.8 1.8h56.18a1.8 1.8 0 0 0 1.8-1.8v-32.65H93.87zM117 250.05h32.18v3.28H117zm0 5.62h27.83V259H117zm0 5.62h32.18v3.28H117zm0 5.62h26.42v3.28H117zm-18-16a1.14 1.14 0 0 1 1.14-1.14H113a1.14 1.14 0 0 1 1.14 1.14v18.39a1.14 1.14 0 0 1-1.14 1.14h-12.92a1.14 1.14 0 0 1-1.14-1.14z" fill="none"/><rect x="98.94" y="249.81" width="15.23" height="20.63" rx="1.14" ry="1.14" fill="#bd965a"/><path fill="#333" d="M116.95 255.68h27.83v3.28h-27.83zM116.95 261.3h32.18v3.28h-32.18zM116.95 250.05h32.18v3.28h-32.18zM116.95 266.92h26.42v3.28h-26.42z"/><circle cx="95.34" cy="239.28" r="1.29" fill="#f1f1f2"/><circle cx="99.48" cy="239.28" r="1.29" fill="#f1f1f2"/><circle cx="103.62" cy="239.28" r="1.29" fill="#f1f1f2"/><path d="M126.26 208v-43.7a2.5 2.5 0 0 0-5 0V208l-7.66-4.45 10.16 24.87 10.16-24.87z" fill="#006a5a"/></svg>