<svg data-name="Layer 1" xmlns="http://www.w3.org/2000/svg" viewBox="0 0 425 300"><title>knowledge-illustrations</title><path fill="#e6e6e6" d="M214.73 27.41h151.93v200.78H214.73z"/><path fill="#fff" d="M212.98 25.66h151.43v200.28H212.98z"/><path d="M364.16 25.91v199.78H213.23V25.91h150.93m.5-.5H212.73v200.78h151.93V25.41z" fill="#ccc"/><path fill="#bd965a" d="M242.29 34.74h54.43v6.11h-54.43z"/><path fill="#58595b" d="M242.29 43.7h49.97v4.02h-49.97zM242.29 50.56h57.79v4.02h-57.79z"/><path d="M233.19 51.34c-2.46 2.9-9.24 11.75-9.26 11.77-.17.2-.26.09-.18-.17 1.44-4.31 3.17-8.77 4.92-12.94l4.24.61a.45.45 0 0 1 .28.73zm-8.29-4.53a.57.57 0 0 1-.36-.92c1.63-2 5.48-6.41 8.54-9.89.73-.81 1.21-.94.41.32a91.42 91.42 0 0 0-6.21 10.81zm12.31 1.84l-7.54-1c3.26-7.62 6.94-15 7.62-16.34l-.07-.05-17.39 16.24a.8.8 0 0 0 .46 1.36l5.79.78A142.71 142.71 0 0 0 218.62 70l-.07.23c-.11.36.53.66.8.37 3.93-4.39 4.09-4.68 18.37-20.61a.83.83 0 0 0-.5-1.37zM212.73 217.8h151.45v7.94H212.73z" fill="#006a5a"/><path fill="#58595b" d="M322.64 207.64h28.86v2.53h-28.86zM322.64 211.28h32.71v2.53h-32.71zM322.64 204.01h35.9v2.53h-35.9z"/><path fill="#e6e6e6" d="M324.62 96.78h71.73v38.12h-71.73z"/><path d="M363.59 113.43l-4.63-.66c-1.91 4.56-3.8 9.44-5.37 14.15-.1.29 0 .4.19.18 0 0 7.44-9.7 10.12-12.87a.49.49 0 0 0-.31-.8zM349.81 111.52a.88.88 0 0 1-.5-1.49l16.46-15.39h-43.15v38.12h25.94a154.08 154.08 0 0 1 7.58-20.39z" fill="#006a5a"/><path d="M364.24 97.82c.87-1.38.35-1.23-.45-.35-3.35 3.8-7.56 8.62-9.34 10.81a.62.62 0 0 0 .4 1l2.6.35a99.91 99.91 0 0 1 6.79-11.81zM394.35 94.65h-27.1c-1.62 3.3-4.53 9.34-7.18 15.54l8.24 1.11a.9.9 0 0 1 .54 1.5c-12.44 13.88-15.08 16.89-17.81 20h43.31z" fill="#006a5a"/><path d="M368.3 111.3l-8.24-1.11c2.66-6.2 5.56-12.24 7.18-15.54h-1.48L349.31 110a.88.88 0 0 0 .5 1.49l6.33.85a154.08 154.08 0 0 0-7.58 20.39H351c2.73-3.08 5.37-6.1 17.81-20a.9.9 0 0 0-.51-1.43zm-13.46-2a.62.62 0 0 1-.4-1c1.78-2.19 6-7 9.34-10.81.8-.88 1.32-1 .45.35a99.91 99.91 0 0 0-6.79 11.81zm9.06 4.95c-2.68 3.17-10.1 12.84-10.12 12.87-.18.22-.29.1-.19-.18 1.57-4.71 3.46-9.58 5.37-14.15l4.63.66a.49.49 0 0 1 .31.78z" fill="#fff"/><path fill="#e6e6e6" d="M324.62 52.78h71.73V90.9h-71.73z"/><path fill="#fff" d="M322.87 51.02h71.23v37.62h-71.23z"/><path d="M393.85 51.28V88.4h-70.73V51.28h70.73m.5-.5h-71.73V88.9h71.73V50.78z" fill="#b3b3b3"/><path fill="#bd965a" d="M346.8 56.07h36.16v3.92H346.8z"/><path fill="#58595b" d="M346.8 61.88H380v2.67h-33.2zM346.8 66.44h38.39v2.67H346.8zM346.8 79.91h8.8v2.67h-8.8zM356.73 79.91h15.21v2.67h-15.21zM373.07 79.91h11.42v2.67h-11.42z"/><path d="M338 70.27c-2 2.4-7.67 9.75-7.68 9.77s-.22.08-.15-.14c1.19-3.57 2.63-7.27 4.08-10.74l3.52.5a.37.37 0 0 1 .23.61zm-6.87-3.75a.47.47 0 0 1-.3-.76c1.35-1.66 4.55-5.31 7.09-8.2.61-.67 1-.78.34.26a75.83 75.83 0 0 0-5.15 9zm10.2 1.48l-6.25-.84c2.71-6.32 5.76-12.42 6.32-13.55h-.06l-14.43 13.47a.67.67 0 0 0 .38 1.13l4.8.65a118.38 118.38 0 0 0-6.19 16.91l-.06.19c-.09.3.44.55.66.3 3.26-3.64 3.39-3.88 15.24-17.09a.68.68 0 0 0-.41-1.14z" fill="#006a5a" data-name="js-logo"/><path fill="#bd965a" d="M113.08 89.16v185.43l81.69-14.4V74.76l-81.69 14.4z"/><path fill="#fff" d="M167.5 252.93l-30.68 5.41v-2.68l30.68-5.41v2.68zM169.55 256.44l-34.78 6.13v-2.69l34.78-6.13v2.69zM171.25 248.41l-38.17 6.73v-2.69l38.17-6.73v2.69zM169.78 102.19l-35.23 6.21v-3.08l35.23-6.21v3.08zM169.78 110.87l-35.23 6.21v-3.09l35.23-6.21v3.09zM172.13 106.11l-39.93 7.04v-3.08l39.93-7.04v3.08zM172.13 114.79l-39.93 7.04v-3.08l39.93-7.05v3.09zM174.07 97.09l-43.82 7.73v-3.08l43.82-7.73v3.08z"/><path d="M157.14 181.82c-3.09 4.19-11.63 16.84-11.66 16.88-.21.29-.33.18-.22-.17 1.81-5.74 4-11.74 6.19-17.39l5.34-.18c.44 0 .64.47.35.86zM146.71 178c-.55 0-.81-.58-.46-1.08 2.05-2.88 6.9-9.28 10.76-14.34.92-1.18 1.52-1.45.52.31a143.77 143.77 0 0 0-7.82 15zm15.5-.41l-9.49.39c4.11-10.31 8.74-20.39 9.59-22.26 0-.06 0-.1-.09-.05L140.34 180c-.59.69-.25 1.64.58 1.61l7.29-.3a212.24 212.24 0 0 0-9.4 27.32l-.09.31c-.14.48.67.71 1 .29 4.94-6.39 5.14-6.8 23.13-30 .56-.72.2-1.65-.63-1.61z" fill="#fff" data-name="js-logo"/><path fill="#006a5a" d="M194.48 74.76v185.43l81.69 14.4V89.16l-81.69-14.4z"/><path d="M247.69 153.71c-5.87 5.89-22.08 24.18-22.13 24.23-.4.4-.63.11-.42-.48 3.43-9.68 7.57-19.61 11.75-28.86l10.11 3.24a1.2 1.2 0 0 1 .67 1.87zM227.9 139.4a1.52 1.52 0 0 1-.87-2.35c3.89-4.09 13.09-13 20.41-20 1.75-1.62 2.88-1.74 1 .93a172.85 172.85 0 0 0-14.84 23.21zm29.42 9.6l-18-5.61c7.79-16.82 16.59-32.86 18.2-35.83.05-.1-.09-.23-.18-.16l-41.54 31.52c-1.11.92-.47 3 1.1 3.44l13.84 4.31a286.2 286.2 0 0 0-17.84 45.56l-.17.53c-.26.82 1.27 1.8 1.9 1.21 9.38-8.83 9.76-9.45 43.89-41.49 1.06-1 .37-3-1.19-3.48z" fill="#fff" data-name="js-logo"/><path fill="#bd965a" d="M267.02 228.82l-66.43-11.71v-7.45l66.43 11.71v7.45z"/><path fill="#fff" d="M261.58 236.24l-60.99-10.75v-4.91l60.99 10.76v4.9zM271.12 246.3l-70.53-12.43v-4.91l70.53 12.44v4.9zM31.62 259.98V75.05l81.19 14.32V274.3l-81.19-14.32z"/><path d="M31.87 75.35l80.69 14.23V274l-80.69-14.23V75.35m-.5-.6v185.44l81.69 14.4V89.16l-81.69-14.4z" fill="#e6e7e8"/><path fill="#58595b" d="M74.96 117.44l-35.23-6.21v-3.09l35.23 6.21v3.09zM74.96 126.87l-35.23-6.21v-3.09l35.23 6.21v3.09zM74.96 141.01l-35.23-6.22v-3.08l35.23 6.21v3.09zM74.96 159.86l-35.23-6.21v-3.09l35.23 6.22v3.08zM79.66 122.98l-39.93-7.04v-3.08l39.93 7.04v3.08zM79.66 137.12l-39.93-7.04V127l39.93 7.04v3.08zM79.66 151.26l-39.93-7.04v-3.08l39.93 7.04v3.08zM83.55 114.24l-43.82-7.73v-3.08l43.82 7.73v3.08zM83.55 147.24l-43.82-7.73v-3.09l43.82 7.73v3.09zM83.55 156.66l-43.82-7.72v-3.09l43.82 7.73v3.08zM83.55 133.09l-43.82-7.72v-3.09l43.82 7.73v3.08z"/><path fill="#006a5a" d="M103.31 97.04L39.73 85.83v12.01l63.58 11.21V97.04z"/><path fill="#58595b" d="M74.96 205.47l-35.23-6.21v-3.08l35.23 6.21v3.08zM74.96 214.9l-35.23-6.21v-3.09l35.23 6.22v3.08zM74.96 229.04l-35.23-6.21v-3.08l35.23 6.21v3.08zM74.96 247.9l-35.23-6.21v-3.09l35.23 6.21v3.09zM79.66 211.02l-39.93-7.04v-3.09l39.93 7.04v3.09zM79.66 225.16l-39.93-7.04v-3.09l39.93 7.04v3.09zM79.66 239.3l-39.93-7.04v-3.09l39.93 7.04v3.09zM83.55 202.28l-43.82-7.73v-3.08l43.82 7.72v3.09zM83.55 235.27l-43.82-7.73v-3.08l43.82 7.73v3.08zM83.55 244.7l-43.82-7.73v-3.08l43.82 7.72v3.09zM83.55 221.13l-43.82-7.73v-3.08l43.82 7.72v3.09z"/><path fill="#bd965a" d="M69.53 179.12l-29.8-5.26v12.02l29.8 5.25v-12.01zM103.31 185.07l-31.09-5.48v12.01l31.09 5.49v-12.02z"/><circle cx="48.15" cy="47.71" r="14.16" fill="none" stroke="#333" stroke-miterlimit="10"/><circle cx="48.15" cy="47.71" r="7.09" fill="#333"/><path fill="none" stroke="#58595b" stroke-miterlimit="10" d="M48.15 30.22v10.4"/><path fill="none" stroke="#fff" stroke-miterlimit="10" d="M48.15 40.62v7.09"/><path fill="none" stroke="#58595b" stroke-miterlimit="10" d="M65.65 47.71H55.24"/><path fill="none" stroke="#fff" stroke-miterlimit="10" d="M55.24 47.71h-7.09"/><path fill="none" stroke="#58595b" stroke-miterlimit="10" d="M48.15 65.21V54.8"/><path fill="none" stroke="#fff" stroke-miterlimit="10" d="M48.15 54.8v-7.09"/><path fill="none" stroke="#58595b" stroke-miterlimit="10" d="M30.65 47.71h10.41"/><path fill="none" stroke="#fff" stroke-miterlimit="10" d="M41.06 47.71h7.09"/><path fill="#006a5a" d="M69.53 41.53H81.9V53.9H69.53z"/><path fill="#3a786a" d="M81.91 41.53h12.37V53.9H81.91z"/><path fill="#5b877d" d="M94.28 41.53h12.37V53.9H94.28z"/><path fill="#7a9a91" d="M106.65 41.53h12.37V53.9h-12.37z"/><path fill="#98afa9" d="M119.02 41.53h12.37V53.9h-12.37z"/><path fill="#bd965a" d="M131.4 41.53h12.37V53.9H131.4z"/><path fill="#c5a36f" d="M143.77 41.53h12.37V53.9h-12.37z"/><path fill="#ceb182" d="M156.14 41.53h12.37V53.9h-12.37z"/><path fill="#d7bf99" d="M168.51 41.53h12.37V53.9h-12.37z"/><path fill="#e0ceb1" d="M180.88 41.53h12.37V53.9h-12.37z"/><path fill="#e6e6e6" d="M276.17 274.59l-1.44-.16-81.1-9.25-80.57 9.41 81.42-14.4"/></svg>