<svg data-name="Layer 1" xmlns="http://www.w3.org/2000/svg" viewBox="0 0 425 300"><title>knowledge-illustrations</title><path d="M182.2 169.38l-.38 1.77h-5.45l4.92-14.2H187l5.06 14.2h-5.47l-.47-1.77zm2.09-7.68h-.19a7.36 7.36 0 0 1-.23 1.6l-.7 2.72h2.06l-.66-2.72a15.68 15.68 0 0 1-.29-1.61zM193.48 156.95h6.19c1.21 0 3.11.13 4.24 1.19a3.66 3.66 0 0 1 1.09 2.77 2.75 2.75 0 0 1-1.83 2.83v.13a3.3 3.3 0 0 1 1.49.85 3.22 3.22 0 0 1 1 2.47 3.47 3.47 0 0 1-1.34 2.87 5.69 5.69 0 0 1-3.64 1.09h-7.21zm4.77 5.45h.81a1.5 1.5 0 0 0 1-.32 1 1 0 0 0 .28-.74.94.94 0 0 0-.32-.74 1.69 1.69 0 0 0-.94-.23h-.81zm0 5.32h1a2.09 2.09 0 0 0 1.09-.23 1.12 1.12 0 0 0 .49-1 1.08 1.08 0 0 0-.38-.85 1.84 1.84 0 0 0-1.13-.3h-1.11zM217.8 170.89a10.83 10.83 0 0 1-3.57.57 7.45 7.45 0 0 1-5.23-2.06 7.33 7.33 0 0 1-2.06-5.24 7.59 7.59 0 0 1 2.13-5.38 7.34 7.34 0 0 1 5.36-2.15 10.72 10.72 0 0 1 3.38.55l.15 5.41a4.49 4.49 0 0 0-3-1.4 2.79 2.79 0 0 0-2.06.87 3 3 0 0 0-.74 2 2.81 2.81 0 0 0 .83 2 2.93 2.93 0 0 0 2.11.81 4 4 0 0 0 2.87-1.34zM220.15 171.14v-14.2h5.47c1.19 0 4.21.11 6.28 2.15a7 7 0 0 1 1.92 5.13 6.65 6.65 0 0 1-1.83 4.92 7 7 0 0 1-5.09 2zm5.11-4.34h.38a3.12 3.12 0 0 0 2.19-.66 2.68 2.68 0 0 0 .83-2 3 3 0 0 0-.83-2.13 2.91 2.91 0 0 0-2-.68h-.55zM236 171.14v-14.2h9.58v3.9h-4.43v1.32h4v3.72h-4v1.36h4.55v3.89zM247.92 171.14v-14.2h9.47v4h-4.32v1.45h3.79v3.75h-3.79v5zM266.39 162.89h8v.32a7.28 7.28 0 0 1-7.87 8.26 7.61 7.61 0 0 1-5.85-2.34 7.09 7.09 0 0 1-1.83-5 7.17 7.17 0 0 1 2-5.21 8.06 8.06 0 0 1 6-2.23 8.51 8.51 0 0 1 4.17 1 6.6 6.6 0 0 1 2.72 2.62l-4.91 1.69a2.21 2.21 0 0 0-2-1.08 2.65 2.65 0 0 0-1.81.66 3.93 3.93 0 0 0-.11 5.21 2.36 2.36 0 0 0 1.68.64 2.11 2.11 0 0 0 2.11-1.21h-2.34zM276.56 171.14v-14.2h5v4.81h3.15v-4.81h5v14.2h-5v-4.94h-3.15v4.94zM292.48 171.14v-14.2h5.15v14.2zM302.85 156.95h5.06v9.9a4.5 4.5 0 0 1-1.28 3.17 4.87 4.87 0 0 1-3.55 1.45 6.27 6.27 0 0 1-3.66-1.15l-.57-.4 1.87-4.38.11.36a2.14 2.14 0 0 0 .47.87.89.89 0 0 0 .66.26.74.74 0 0 0 .6-.26 1.68 1.68 0 0 0 .3-1zM310.74 171.14v-14.2h4.94v4.41a12.64 12.64 0 0 1-.11 1.79h.11a9.75 9.75 0 0 1 .74-1.6l2.45-4.6h5.58l-4.43 7 4.9 7.24h-6l-2.6-4.55a13.69 13.69 0 0 1-.68-1.36h-.11a7.29 7.29 0 0 1 .11 1.34v4.58zM326.49 171.14v-14.2h5.15v9.62H336v4.58zM337.13 171.14l2.3-14.2h5.3l1.66 5.81a10.42 10.42 0 0 1 .32 1.64h.13a6.15 6.15 0 0 1 .28-1.64l1.66-5.81H354l2.32 14.2h-5l-.64-6.36a13.34 13.34 0 0 1-.09-1.4h-.08c-.06.36-.19.92-.28 1.19l-2.11 6.58h-3l-1.89-6.21a5.93 5.93 0 0 1-.28-1.55h-.15v1.11l-.7 6.66zM358.63 171.14v-14.2h4.92l3.3 5.36a15.37 15.37 0 0 1 1.34 2.51h.15a16.67 16.67 0 0 1-.45-3.36v-4.51h4.94v14.2h-4.94l-3.53-5.6a18.79 18.79 0 0 1-1-1.85h-.15a17.4 17.4 0 0 1 .32 2.62v4.83zM388.81 169.18a8.77 8.77 0 0 1-11.79 0 7.66 7.66 0 0 1 0-10.28 8.77 8.77 0 0 1 11.79 0 7.66 7.66 0 0 1 0 10.28zm-7.75-7.26a3.19 3.19 0 0 0-.81 2.13 3 3 0 0 0 .81 2.11 2.73 2.73 0 0 0 3.7 0 3 3 0 0 0 .81-2.11 2.89 2.89 0 0 0-.81-2.13 2.57 2.57 0 0 0-1.85-.72 2.46 2.46 0 0 0-1.85.73zM393 171.14v-14.2h6.81a5.79 5.79 0 0 1 4.15 1.49 5.08 5.08 0 0 1 1.45 3.72 4.56 4.56 0 0 1-1.4 3.55 4.86 4.86 0 0 1-3.49 1.15H398v4.28zm5-7.85h.87a1.61 1.61 0 0 0 1.15-.38 1.11 1.11 0 0 0 .34-.87 1.06 1.06 0 0 0-.38-.87 1.79 1.79 0 0 0-1-.32H398zM178.29 180.17v7.16h2.21v.84h-3.1v-8zM181 185.7a2.64 2.64 0 1 1 2.64 2.61 2.56 2.56 0 0 1-2.64-2.61zm.89 0a1.75 1.75 0 1 0 1.75-1.86 1.73 1.73 0 0 0-1.7 1.86zM187.53 183.2h.86v.54a1.38 1.38 0 0 1 1.13-.66 1.82 1.82 0 0 1 .77.2l-.41.78a.89.89 0 0 0-.5-.17.84.84 0 0 0-.7.31 2.15 2.15 0 0 0-.29 1.34v2.63h-.86zM195.08 186.9a3 3 0 0 1-.61.8 2.42 2.42 0 0 1-1.66.61 2.38 2.38 0 0 1-2.46-2.6 2.41 2.41 0 0 1 2.41-2.64 2.23 2.23 0 0 1 1.88.91 3.34 3.34 0 0 1 .47 1.87h-3.87a1.59 1.59 0 0 0 1.58 1.69 1.52 1.52 0 0 0 1-.36 2 2 0 0 0 .52-.68zm-.85-1.76a1.49 1.49 0 0 0-1.46-1.3 1.51 1.51 0 0 0-1.46 1.3zM196.32 183.2h.86v.53a1.45 1.45 0 0 1 1.24-.65 1.49 1.49 0 0 1 1.36.8 1.66 1.66 0 0 1 1.5-.8c1.48 0 1.62 1.24 1.62 1.94v3.15h-.9v-3c0-.56-.07-1.31-.89-1.31-1 0-1.1 1-1.1 1.56v2.77h-.86v-3c0-.35 0-1.38-.9-1.38s-1.09 1-1.09 1.62v2.71h-.86zM207.29 180.7a.61.61 0 1 1-.61.61.61.61 0 0 1 .61-.61zm.43 2.49v5h-.86v-5zM210.1 190.93h-.86v-7.73h.86v.7a2.14 2.14 0 0 1 1.7-.82 2.46 2.46 0 0 1 2.42 2.64 2.42 2.42 0 0 1-2.39 2.6 2.11 2.11 0 0 1-1.74-.84zm3.24-5.22a1.71 1.71 0 0 0-1.63-1.87 1.73 1.73 0 0 0-1.66 1.86 1.7 1.7 0 0 0 1.67 1.85 1.68 1.68 0 0 0 1.62-1.84zM217.48 184.35a.76.76 0 0 0-.7-.5.55.55 0 0 0-.6.56c0 .36.24.47.8.71a3 3 0 0 1 1.25.77 1.18 1.18 0 0 1 .26.8 1.58 1.58 0 0 1-1.71 1.63A1.78 1.78 0 0 1 215 187l.74-.31a1.13 1.13 0 0 0 1 .82.77.77 0 0 0 .82-.79c0-.47-.34-.62-.8-.83a3.25 3.25 0 0 1-1.21-.73 1.08 1.08 0 0 1-.23-.73 1.34 1.34 0 0 1 1.45-1.39 1.44 1.44 0 0 1 1.37.9zM220.4 186.1a1.69 1.69 0 0 0 .24 1.07 1.19 1.19 0 0 0 1.75 0 1.69 1.69 0 0 0 .24-1.07v-2.9h.86v3a2 2 0 0 1-.46 1.5 2.17 2.17 0 0 1-3 0 2 2 0 0 1-.46-1.5v-3h.86zM225 183.2h.86v.53a1.45 1.45 0 0 1 1.24-.65 1.49 1.49 0 0 1 1.36.8 1.66 1.66 0 0 1 1.5-.8c1.48 0 1.62 1.24 1.62 1.94v3.15h-.86v-3c0-.56-.07-1.31-.89-1.31-1 0-1.1 1-1.1 1.56v2.77h-.86v-3c0-.35 0-1.38-.9-1.38s-1.09 1-1.09 1.62v2.71H225zM239.36 179.43h.86v8.74h-.86v-.7a2.1 2.1 0 0 1-1.7.84 2.63 2.63 0 0 1 0-5.24 2.06 2.06 0 0 1 1.7.83zm-3.24 6.25a1.66 1.66 0 0 0 1.63 1.87 1.86 1.86 0 0 0 0-3.71 1.65 1.65 0 0 0-1.63 1.84zM241.42 185.7a2.64 2.64 0 1 1 2.64 2.61 2.56 2.56 0 0 1-2.64-2.61zm.89 0a1.75 1.75 0 1 0 1.75-1.86 1.73 1.73 0 0 0-1.75 1.86zM248.77 179.43v8.74h-.86v-8.74zM250 185.7a2.64 2.64 0 1 1 2.64 2.61 2.56 2.56 0 0 1-2.64-2.61zm.89 0a1.75 1.75 0 1 0 1.75-1.86 1.73 1.73 0 0 0-1.79 1.86zM256.45 183.2h.86v.54a1.38 1.38 0 0 1 1.13-.66 1.82 1.82 0 0 1 .77.2l-.41.78a.89.89 0 0 0-.5-.17.84.84 0 0 0-.7.31 2.15 2.15 0 0 0-.29 1.34v2.63h-.86zM264.37 184.35a.76.76 0 0 0-.7-.5.55.55 0 0 0-.6.56c0 .36.24.47.8.71a3 3 0 0 1 1.25.77 1.18 1.18 0 0 1 .26.8 1.58 1.58 0 0 1-1.71 1.63 1.78 1.78 0 0 1-1.74-1.27l.74-.31a1.13 1.13 0 0 0 1 .82.77.77 0 0 0 .82-.79c0-.47-.34-.62-.8-.83a3.25 3.25 0 0 1-1.21-.73 1.08 1.08 0 0 1-.23-.73 1.34 1.34 0 0 1 1.45-1.39 1.44 1.44 0 0 1 1.37.9zM266.85 180.7a.61.61 0 1 1-.61.61.61.61 0 0 1 .61-.61zm.43 2.49v5h-.86v-5zM269.68 184v4.19h-.86V184h-.53v-.79h.53v-1.8h.86v1.8h.86v.79zM277.5 183.2h.86v5h-.86v-.7a2.1 2.1 0 0 1-1.7.84 2.63 2.63 0 0 1 0-5.24 2.06 2.06 0 0 1 1.7.83zm-3.24 2.48a1.66 1.66 0 0 0 1.63 1.87 1.86 1.86 0 0 0 0-3.71 1.65 1.65 0 0 0-1.63 1.84zM279.87 183.2h.86v.53a1.45 1.45 0 0 1 1.24-.65 1.49 1.49 0 0 1 1.36.8 1.66 1.66 0 0 1 1.5-.8c1.48 0 1.62 1.24 1.62 1.94v3.15h-.86v-3c0-.56-.07-1.31-.89-1.31-1 0-1.1 1-1.1 1.56v2.77h-.86v-3c0-.35 0-1.38-.9-1.38s-1.09 1-1.09 1.62v2.71h-.86zM292.39 186.9a3 3 0 0 1-.61.8 2.42 2.42 0 0 1-1.66.61 2.38 2.38 0 0 1-2.46-2.6 2.41 2.41 0 0 1 2.41-2.64 2.23 2.23 0 0 1 1.93.93 3.33 3.33 0 0 1 .47 1.87h-3.87a1.59 1.59 0 0 0 1.58 1.69 1.52 1.52 0 0 0 1-.36 2 2 0 0 0 .52-.68zm-.85-1.76a1.49 1.49 0 0 0-1.46-1.3 1.51 1.51 0 0 0-1.46 1.3zM294.51 184v4.19h-.86V184h-.53v-.79h.53v-1.8h.86v1.8h.86v.79zM296.36 187l.79.29-1.21 2.71-.56-.23zM305 184.59a2 2 0 0 0-1.56-.74 1.86 1.86 0 0 0 0 3.71 2.12 2.12 0 0 0 1.61-.78v1a2.66 2.66 0 0 1-1.58.52 2.62 2.62 0 1 1 0-5.24 2.64 2.64 0 0 1 1.55.48zM306 185.7a2.64 2.64 0 1 1 2.64 2.61 2.56 2.56 0 0 1-2.64-2.61zm.89 0a1.75 1.75 0 1 0 1.75-1.86 1.73 1.73 0 0 0-1.8 1.86zM312.43 183.2h.86v.58a1.76 1.76 0 0 1 1.43-.7 1.69 1.69 0 0 1 1.43.68 2.22 2.22 0 0 1 .29 1.33v3.08h-.86v-3.06a1.46 1.46 0 0 0-.23-.91 1 1 0 0 0-.82-.36 1.09 1.09 0 0 0-.87.38 2.1 2.1 0 0 0-.36 1.34v2.6h-.86zM320 184.35a.76.76 0 0 0-.7-.5.55.55 0 0 0-.6.56c0 .36.24.47.8.71a3 3 0 0 1 1.25.77 1.18 1.18 0 0 1 .26.8 1.58 1.58 0 0 1-1.71 1.63 1.78 1.78 0 0 1-1.74-1.27l.74-.31a1.13 1.13 0 0 0 1 .82.77.77 0 0 0 .82-.79c0-.47-.34-.62-.8-.83a3.25 3.25 0 0 1-1.21-.73 1.08 1.08 0 0 1-.23-.73 1.34 1.34 0 0 1 1.45-1.39 1.44 1.44 0 0 1 1.37.9zM326.47 186.9a3 3 0 0 1-.61.8 2.42 2.42 0 0 1-1.66.61 2.38 2.38 0 0 1-2.46-2.6 2.41 2.41 0 0 1 2.41-2.64 2.23 2.23 0 0 1 1.85.93 3.34 3.34 0 0 1 .47 1.87h-3.87a1.59 1.59 0 0 0 1.58 1.69 1.52 1.52 0 0 0 1-.36 2 2 0 0 0 .52-.68zm-.85-1.76a1.49 1.49 0 0 0-1.46-1.3 1.51 1.51 0 0 0-1.46 1.3zM331.61 184.59a2 2 0 0 0-1.56-.74 1.86 1.86 0 0 0 0 3.71 2.12 2.12 0 0 0 1.61-.78v1a2.66 2.66 0 0 1-1.58.52 2.62 2.62 0 1 1 0-5.24 2.64 2.64 0 0 1 1.55.48zM333.73 184v4.19h-.86V184h-.53v-.79h.53v-1.8h.86v1.8h.86v.79zM339.71 186.9a3 3 0 0 1-.61.8 2.42 2.42 0 0 1-1.66.61 2.38 2.38 0 0 1-2.46-2.6 2.41 2.41 0 0 1 2.41-2.64 2.23 2.23 0 0 1 1.88.91 3.34 3.34 0 0 1 .47 1.87h-3.87a1.59 1.59 0 0 0 1.58 1.69 1.52 1.52 0 0 0 1-.36 2 2 0 0 0 .52-.68zm-.85-1.76a1.49 1.49 0 0 0-1.46-1.3 1.51 1.51 0 0 0-1.46 1.3zM341.83 184v4.19H341V184h-.53v-.79h.53v-1.8h.86v1.8h.86v.79zM344.25 186.1a1.69 1.69 0 0 0 .24 1.07 1.19 1.19 0 0 0 1.75 0 1.69 1.69 0 0 0 .24-1.07v-2.9h.86v3a2 2 0 0 1-.46 1.5 2.17 2.17 0 0 1-3 0 2 2 0 0 1-.46-1.5v-3h.86zM353.28 186.9a3 3 0 0 1-.61.8 2.42 2.42 0 0 1-1.66.61 2.38 2.38 0 0 1-2.46-2.6 2.41 2.41 0 0 1 2.41-2.64 2.23 2.23 0 0 1 1.88.91 3.33 3.33 0 0 1 .47 1.87h-3.87a1.59 1.59 0 0 0 1.58 1.69 1.52 1.52 0 0 0 1-.36 2 2 0 0 0 .52-.68zm-.85-1.76a1.49 1.49 0 0 0-1.46-1.3 1.51 1.51 0 0 0-1.46 1.3zM354.51 183.2h.86v.54a1.38 1.38 0 0 1 1.13-.66 1.82 1.82 0 0 1 .77.2l-.41.78a.89.89 0 0 0-.5-.17.84.84 0 0 0-.7.31 2.15 2.15 0 0 0-.29 1.34v2.63h-.86zM364.2 183.2h.86v5h-.86v-.7a2.1 2.1 0 0 1-1.7.84 2.63 2.63 0 0 1 0-5.24 2.06 2.06 0 0 1 1.7.83zm-3.2 2.48a1.66 1.66 0 0 0 1.63 1.87 1.86 1.86 0 0 0 0-3.71 1.65 1.65 0 0 0-1.63 1.84zM370.39 179.43h.86v8.74h-.86v-.7a2.1 2.1 0 0 1-1.7.84 2.63 2.63 0 0 1 0-5.24 2.06 2.06 0 0 1 1.7.83zm-3.24 6.25a1.66 1.66 0 0 0 1.63 1.87 1.86 1.86 0 0 0 0-3.71 1.65 1.65 0 0 0-1.63 1.84zM373.08 180.7a.61.61 0 1 1-.61.61.61.61 0 0 1 .61-.61zm.43 2.49v5h-.86v-5zM375.89 190.93H375v-7.73h.86v.7a2.14 2.14 0 0 1 1.7-.82 2.46 2.46 0 0 1 2.42 2.64 2.42 2.42 0 0 1-2.39 2.6 2.11 2.11 0 0 1-1.74-.84zm3.24-5.22a1.71 1.71 0 0 0-1.63-1.87 1.73 1.73 0 0 0-1.66 1.86 1.7 1.7 0 0 0 1.67 1.85 1.68 1.68 0 0 0 1.62-1.84zM381.65 180.7a.61.61 0 1 1-.61.61.61.61 0 0 1 .61-.61zm.43 2.49v5h-.86v-5zM385.64 184.35a.76.76 0 0 0-.7-.5.55.55 0 0 0-.6.56c0 .36.24.47.8.71a3 3 0 0 1 1.25.77 1.18 1.18 0 0 1 .26.8 1.58 1.58 0 0 1-1.71 1.63 1.78 1.78 0 0 1-1.74-1.27l.74-.31a1.13 1.13 0 0 0 1 .82.77.77 0 0 0 .82-.79c0-.47-.34-.62-.8-.83a3.25 3.25 0 0 1-1.21-.73 1.08 1.08 0 0 1-.23-.73 1.34 1.34 0 0 1 1.45-1.39 1.44 1.44 0 0 1 1.37.9zM391.59 184.59a2 2 0 0 0-1.56-.74 1.86 1.86 0 0 0 0 3.71 2.12 2.12 0 0 0 1.61-.78v1a2.66 2.66 0 0 1-1.58.52 2.62 2.62 0 1 1 0-5.24 2.64 2.64 0 0 1 1.55.48zM393.26 180.7a.61.61 0 1 1-.61.61.61.61 0 0 1 .61-.61zm.43 2.49v5h-.86v-5zM395.21 183.2h.86v.58a1.76 1.76 0 0 1 1.43-.7 1.69 1.69 0 0 1 1.43.68 2.22 2.22 0 0 1 .29 1.33v3.08h-.86v-3.06a1.46 1.46 0 0 0-.23-.91 1 1 0 0 0-.82-.36 1.09 1.09 0 0 0-.87.38 2.1 2.1 0 0 0-.36 1.34v2.6h-.86zM404.54 183.2h.86v4.86a3.13 3.13 0 0 1-.48 2 2.42 2.42 0 0 1-2 .92 2.47 2.47 0 0 1-1.78-.67 2.24 2.24 0 0 1-.65-1.61h.85a1.57 1.57 0 0 0 .38 1 1.54 1.54 0 0 0 1.2.48 1.4 1.4 0 0 0 1.32-.7 2.31 2.31 0 0 0 .28-1.27v-.72a2.1 2.1 0 0 1-1.7.84 2.38 2.38 0 0 1-1.7-.67 2.69 2.69 0 0 1-.72-2 2.61 2.61 0 0 1 .72-1.93 2.45 2.45 0 0 1 1.7-.67 2.07 2.07 0 0 1 1.7.83zm-2.74 1.12a1.9 1.9 0 0 0-.5 1.37 1.92 1.92 0 0 0 .56 1.46 1.51 1.51 0 0 0 1.07.41 1.47 1.47 0 0 0 1.09-.42 2 2 0 0 0 .56-1.44 2 2 0 0 0-.53-1.4 1.59 1.59 0 0 0-1.13-.44 1.55 1.55 0 0 0-1.11.45zM181.6 201.3a3 3 0 0 1-.61.8 2.42 2.42 0 0 1-1.66.61 2.38 2.38 0 0 1-2.46-2.6 2.41 2.41 0 0 1 2.41-2.64 2.23 2.23 0 0 1 1.88.91 3.33 3.33 0 0 1 .47 1.87h-3.87a1.59 1.59 0 0 0 1.58 1.69 1.52 1.52 0 0 0 1-.36 2 2 0 0 0 .52-.68zm-.85-1.76a1.49 1.49 0 0 0-1.46-1.3 1.51 1.51 0 0 0-1.46 1.3zM183.7 193.83v8.74h-.86v-8.74zM185.64 195.1a.61.61 0 1 1-.61.61.61.61 0 0 1 .61-.61zm.43 2.49v5h-.86v-5zM188.47 198.39v4.19h-.86v-4.19h-.53v-.79h.53v-1.8h.86v1.8h.86v.79zM190.32 201.4l.79.29-1.21 2.71-.56-.23zM198.73 198.75a.76.76 0 0 0-.7-.5.55.55 0 0 0-.6.56c0 .36.24.47.8.71a3 3 0 0 1 1.25.77 1.18 1.18 0 0 1 .26.8 1.58 1.58 0 0 1-1.71 1.63 1.78 1.78 0 0 1-1.74-1.27l.74-.31a1.13 1.13 0 0 0 1 .82.77.77 0 0 0 .82-.79c0-.47-.34-.62-.8-.83a3.25 3.25 0 0 1-1.21-.73 1.08 1.08 0 0 1-.23-.73 1.34 1.34 0 0 1 1.45-1.39 1.44 1.44 0 0 1 1.37.9zM205.2 201.3a3 3 0 0 1-.61.8 2.42 2.42 0 0 1-1.66.61 2.38 2.38 0 0 1-2.46-2.6 2.41 2.41 0 0 1 2.41-2.64 2.23 2.23 0 0 1 1.88.91 3.34 3.34 0 0 1 .47 1.87h-3.87a1.59 1.59 0 0 0 1.58 1.69 1.52 1.52 0 0 0 1-.36 2 2 0 0 0 .52-.68zm-.85-1.76a1.49 1.49 0 0 0-1.46-1.3 1.51 1.51 0 0 0-1.46 1.3zM210.25 193.83h.86v8.74h-.86v-.7a2.1 2.1 0 0 1-1.7.84 2.63 2.63 0 0 1 0-5.24 2.06 2.06 0 0 1 1.7.83zm-3.25 6.25a1.66 1.66 0 0 0 1.63 1.87 1.86 1.86 0 0 0 0-3.71 1.65 1.65 0 0 0-1.63 1.84zM220.48 193.83h.86v8.74h-.86v-.7a2.1 2.1 0 0 1-1.7.84 2.63 2.63 0 0 1 0-5.24 2.06 2.06 0 0 1 1.7.83zm-3.24 6.25a1.66 1.66 0 0 0 1.63 1.87 1.86 1.86 0 0 0 0-3.71 1.65 1.65 0 0 0-1.63 1.84zM223.17 195.1a.61.61 0 1 1-.61.61.61.61 0 0 1 .61-.61zm.43 2.49v5h-.86v-5zM228.93 197.6h.86v5h-.86v-.7a2.1 2.1 0 0 1-1.7.84 2.63 2.63 0 0 1 0-5.24 2.06 2.06 0 0 1 1.7.83zm-3.24 2.48a1.66 1.66 0 0 0 1.63 1.87 1.86 1.86 0 0 0 0-3.71 1.65 1.65 0 0 0-1.63 1.84zM231.3 197.6h.86v.53a1.45 1.45 0 0 1 1.24-.65 1.49 1.49 0 0 1 1.36.8 1.66 1.66 0 0 1 1.5-.8c1.48 0 1.62 1.24 1.62 1.94v3.15H237v-3c0-.56-.07-1.31-.89-1.31-1 0-1.1 1-1.1 1.56v2.77h-.86v-3c0-.35 0-1.38-.9-1.38s-1.09 1-1.09 1.62v2.71h-.86zM243.44 197.6h.86v.58a1.76 1.76 0 0 1 1.43-.7 1.69 1.69 0 0 1 1.43.68 2.22 2.22 0 0 1 .29 1.33v3.08h-.86v-3.06a1.46 1.46 0 0 0-.23-.91 1 1 0 0 0-.82-.36 1.09 1.09 0 0 0-.87.38 2.1 2.1 0 0 0-.36 1.34v2.6h-.86zM248.64 200.1a2.64 2.64 0 1 1 2.64 2.61 2.56 2.56 0 0 1-2.64-2.61zm.89 0a1.75 1.75 0 1 0 1.75-1.86 1.73 1.73 0 0 0-1.75 1.86zM255.12 197.6h.88v.58a1.76 1.76 0 0 1 1.43-.7 1.69 1.69 0 0 1 1.43.68 2.22 2.22 0 0 1 .29 1.33v3.08h-.86v-3.06a1.46 1.46 0 0 0-.23-.91 1 1 0 0 0-.82-.36 1.09 1.09 0 0 0-.87.38A2.1 2.1 0 0 0 256 200v2.6h-.86zM261.51 200.5a1.69 1.69 0 0 0 .24 1.07 1.19 1.19 0 0 0 1.75 0 1.69 1.69 0 0 0 .24-1.07v-2.9h.86v3a2 2 0 0 1-.46 1.5 2.17 2.17 0 0 1-3 0 2 2 0 0 1-.46-1.5v-3h.86zM266.11 197.6h.89v.53a1.45 1.45 0 0 1 1.24-.65 1.49 1.49 0 0 1 1.36.8 1.66 1.66 0 0 1 1.5-.8c1.48 0 1.62 1.24 1.62 1.94v3.15h-.86v-3c0-.56-.07-1.31-.89-1.31-1 0-1.1 1-1.1 1.56v2.77H269v-3c0-.35 0-1.38-.9-1.38s-1.09 1-1.09 1.62v2.71h-.86zM274.21 197.6h.86v.53a1.45 1.45 0 0 1 1.24-.65 1.49 1.49 0 0 1 1.36.8 1.66 1.66 0 0 1 1.5-.8c1.48 0 1.62 1.24 1.62 1.94v3.15h-.86v-3c0-.56-.07-1.31-.89-1.31-1 0-1.1 1-1.1 1.56v2.77h-.86v-3c0-.35 0-1.38-.9-1.38s-1.09 1-1.09 1.62v2.71h-.86zM283.89 202.11l-2.29-4.51h1l1.76 3.56 1.64-3.56h1l-3.66 7.74h-1zM291.75 197.6h.86v.58a1.76 1.76 0 0 1 1.43-.7 1.69 1.69 0 0 1 1.43.68 2.22 2.22 0 0 1 .29 1.33v3.08h-.86v-3.06a1.46 1.46 0 0 0-.23-.91 1 1 0 0 0-.82-.36 1.09 1.09 0 0 0-.87.38 2.1 2.1 0 0 0-.36 1.34v2.6h-.86zM297.7 195.1a.61.61 0 1 1-.61.61.61.61 0 0 1 .61-.61zm.43 2.49v5h-.86v-5zM300.51 202.57h-.86v-8.74h.86v4.46a2.14 2.14 0 0 1 1.7-.82 2.46 2.46 0 0 1 2.42 2.64 2.42 2.42 0 0 1-2.39 2.6 2.11 2.11 0 0 1-1.74-.84zm3.24-2.46a1.71 1.71 0 0 0-1.63-1.87 1.73 1.73 0 0 0-1.66 1.86 1.7 1.7 0 0 0 1.67 1.85 1.68 1.68 0 0 0 1.61-1.84zM305.83 193.83h.86v4.34a1.76 1.76 0 0 1 1.43-.7 1.69 1.69 0 0 1 1.43.68 2.22 2.22 0 0 1 .29 1.33v3.08H309v-3.06a1.46 1.46 0 0 0-.23-.91 1 1 0 0 0-.82-.36 1.09 1.09 0 0 0-.87.38 2.1 2.1 0 0 0-.36 1.34v2.6h-.86zM319.8 201.3a3 3 0 0 1-.61.8 2.42 2.42 0 0 1-1.66.61 2.38 2.38 0 0 1-2.46-2.6 2.41 2.41 0 0 1 2.41-2.64 2.23 2.23 0 0 1 1.88.91 3.34 3.34 0 0 1 .47 1.87H316a1.59 1.59 0 0 0 1.58 1.69 1.52 1.52 0 0 0 1-.36 2 2 0 0 0 .52-.68zm-.85-1.76a1.49 1.49 0 0 0-1.46-1.3 1.51 1.51 0 0 0-1.46 1.3zM321.9 200.5a1.69 1.69 0 0 0 .24 1.07 1.19 1.19 0 0 0 1.75 0 1.69 1.69 0 0 0 .24-1.07v-2.9h.87v3a2 2 0 0 1-.46 1.5 2.17 2.17 0 0 1-3 0 2 2 0 0 1-.46-1.5v-3h.86zM326.94 195.1a.61.61 0 1 1-.61.61.61.61 0 0 1 .61-.61zm.43 2.49v5h-.86v-5zM330.94 198.75a.76.76 0 0 0-.7-.5.55.55 0 0 0-.6.56c0 .36.24.47.8.71a3 3 0 0 1 1.25.77 1.18 1.18 0 0 1 .26.8 1.58 1.58 0 0 1-1.71 1.63 1.78 1.78 0 0 1-1.74-1.27l.74-.31a1.13 1.13 0 0 0 1 .82.77.77 0 0 0 .82-.79c0-.47-.34-.62-.8-.83a3.25 3.25 0 0 1-1.21-.73 1.08 1.08 0 0 1-.23-.73 1.34 1.34 0 0 1 1.45-1.39 1.44 1.44 0 0 1 1.37.9zM333 197.6h.86v.53a1.45 1.45 0 0 1 1.24-.65 1.49 1.49 0 0 1 1.36.8 1.66 1.66 0 0 1 1.5-.8c1.48 0 1.62 1.24 1.62 1.94v3.15h-.86v-3c0-.56-.07-1.31-.89-1.31-1 0-1.1 1-1.1 1.56v2.77h-.86v-3c0-.35 0-1.38-.9-1.38s-1.09 1-1.09 1.62v2.71H333zM340.78 200.1a2.64 2.64 0 1 1 2.64 2.61 2.56 2.56 0 0 1-2.64-2.61zm.89 0a1.75 1.75 0 1 0 1.75-1.86 1.73 1.73 0 0 0-1.76 1.86zM351.07 193.83h.86v8.74h-.86v-.7a2.1 2.1 0 0 1-1.7.84 2.63 2.63 0 0 1 0-5.24 2.06 2.06 0 0 1 1.7.83zm-3.24 6.25a1.66 1.66 0 0 0 1.63 1.87 1.86 1.86 0 0 0 0-3.71 1.65 1.65 0 0 0-1.63 1.84zM358.37 198.39v4.19h-.86v-4.19H357v-.79h.53v-1.8h.86v1.8h.86v.79zM360.36 195.1a.61.61 0 1 1-.61.61.61.61 0 0 1 .61-.61zm.43 2.49v5h-.86v-5zM362.3 197.6h.86v.58a1.76 1.76 0 0 1 1.43-.7 1.69 1.69 0 0 1 1.43.68 2.22 2.22 0 0 1 .29 1.33v3.08h-.86v-3.06a1.46 1.46 0 0 0-.23-.91 1 1 0 0 0-.82-.36 1.09 1.09 0 0 0-.87.38 2.1 2.1 0 0 0-.36 1.34v2.6h-.86zM371.72 199a2 2 0 0 0-1.56-.74 1.86 1.86 0 0 0 0 3.71 2.12 2.12 0 0 0 1.61-.78v1a2.66 2.66 0 0 1-1.58.52 2.62 2.62 0 1 1 0-5.24 2.64 2.64 0 0 1 1.55.48zM373.39 195.1a.61.61 0 1 1-.61.61.61.61 0 0 1 .61-.61zm.43 2.49v5H373v-5zM379.15 193.83h.85v8.74h-.86v-.7a2.1 2.1 0 0 1-1.7.84 2.63 2.63 0 0 1 0-5.24 2.06 2.06 0 0 1 1.7.83zm-3.24 6.25a1.66 1.66 0 0 0 1.63 1.87 1.86 1.86 0 0 0 0-3.71 1.65 1.65 0 0 0-1.63 1.84zM382.39 200.5a1.69 1.69 0 0 0 .24 1.07 1.19 1.19 0 0 0 1.75 0 1.69 1.69 0 0 0 .24-1.07v-2.9h.86v3a2 2 0 0 1-.46 1.5 2.17 2.17 0 0 1-3 0 2 2 0 0 1-.46-1.5v-3h.86zM387 197.6h.86v.58a1.76 1.76 0 0 1 1.43-.7 1.69 1.69 0 0 1 1.43.68 2.22 2.22 0 0 1 .29 1.33v3.08h-.86v-3.06a1.46 1.46 0 0 0-.23-.91 1 1 0 0 0-.82-.36 1.09 1.09 0 0 0-.87.38 2.1 2.1 0 0 0-.36 1.34v2.6H387zM393.41 198.39v4.19h-.86v-4.19H392v-.79h.53v-1.8h.86v1.8h.86v.79zM399.86 200.5a1.69 1.69 0 0 0 .24 1.07 1.19 1.19 0 0 0 1.75 0 1.69 1.69 0 0 0 .24-1.07v-2.9h.91v3a2 2 0 0 1-.46 1.5 2.17 2.17 0 0 1-3 0 2 2 0 0 1-.46-1.5v-3h.86zM405.36 198.39v4.19h-.86v-4.19h-.5v-.79h.53v-1.8h.86v1.8h.86v.79zM178 208.23V217h-.86v-8.74zM183.37 212h.86v5h-.86v-.7a2.1 2.1 0 0 1-1.7.84 2.63 2.63 0 0 1 0-5.24 2.06 2.06 0 0 1 1.7.83zm-3.24 2.48a1.66 1.66 0 0 0 1.63 1.87 1.86 1.86 0 0 0 0-3.71 1.65 1.65 0 0 0-1.62 1.84zM185.44 214.5a2.64 2.64 0 1 1 2.64 2.61 2.56 2.56 0 0 1-2.64-2.61zm.89 0a1.75 1.75 0 1 0 1.75-1.86 1.73 1.73 0 0 0-1.75 1.86zM191.92 212h.86v.54a1.38 1.38 0 0 1 1.13-.66 1.82 1.82 0 0 1 .77.2l-.41.78a.89.89 0 0 0-.5-.17.84.84 0 0 0-.7.31 2.15 2.15 0 0 0-.29 1.34V217h-.86zM199.48 215.7a3 3 0 0 1-.61.8 2.42 2.42 0 0 1-1.66.61 2.38 2.38 0 0 1-2.46-2.6 2.41 2.41 0 0 1 2.41-2.64 2.23 2.23 0 0 1 1.88.91 3.33 3.33 0 0 1 .47 1.87h-3.87a1.59 1.59 0 0 0 1.58 1.69 1.52 1.52 0 0 0 1-.36 2 2 0 0 0 .52-.68zm-.85-1.76a1.49 1.49 0 0 0-1.46-1.3 1.51 1.51 0 0 0-1.46 1.3zM205.13 215.7a3 3 0 0 1-.61.8 2.42 2.42 0 0 1-1.66.61 2.38 2.38 0 0 1-2.46-2.6 2.41 2.41 0 0 1 2.41-2.64 2.23 2.23 0 0 1 1.88.91 3.33 3.33 0 0 1 .47 1.87h-3.87a1.59 1.59 0 0 0 1.58 1.69 1.52 1.52 0 0 0 1-.36 2 2 0 0 0 .52-.68zm-.85-1.76a1.49 1.49 0 0 0-1.46-1.3 1.51 1.51 0 0 0-1.46 1.3zM207.25 212.79V217h-.86v-4.19h-.53V212h.53v-1.8h.86v1.8h.86v.79zM214.91 208.23h.86V217h-.86v-.7a2.1 2.1 0 0 1-1.7.84 2.63 2.63 0 0 1 0-5.24 2.06 2.06 0 0 1 1.7.83zm-3.24 6.25a1.66 1.66 0 0 0 1.63 1.87 1.86 1.86 0 0 0 0-3.71 1.65 1.65 0 0 0-1.63 1.84zM217 214.5a2.64 2.64 0 1 1 2.64 2.61 2.56 2.56 0 0 1-2.64-2.61zm.89 0a1.75 1.75 0 1 0 1.75-1.86 1.73 1.73 0 0 0-1.78 1.86zM224.32 208.23V217h-.86v-8.74zM225.52 214.5a2.64 2.64 0 1 1 2.64 2.61 2.56 2.56 0 0 1-2.64-2.61zm.89 0a1.75 1.75 0 1 0 1.75-1.86 1.73 1.73 0 0 0-1.75 1.86zM232 212h.86v.54a1.38 1.38 0 0 1 1.13-.66 1.82 1.82 0 0 1 .77.2l-.41.78a.89.89 0 0 0-.5-.17.84.84 0 0 0-.7.31 2.15 2.15 0 0 0-.29 1.34V217H232zM239.56 215.7a3 3 0 0 1-.61.8 2.42 2.42 0 0 1-1.66.61 2.38 2.38 0 0 1-2.46-2.6 2.41 2.41 0 0 1 2.41-2.64 2.23 2.23 0 0 1 1.88.91 3.33 3.33 0 0 1 .47 1.87h-3.87a1.59 1.59 0 0 0 1.58 1.69 1.52 1.52 0 0 0 1-.36 2 2 0 0 0 .52-.68zm-.85-1.76a1.49 1.49 0 0 0-1.46-1.3 1.51 1.51 0 0 0-1.46 1.3zM243.07 212h.86v.53a1.45 1.45 0 0 1 1.24-.65 1.49 1.49 0 0 1 1.36.8 1.66 1.66 0 0 1 1.5-.8c1.48 0 1.62 1.24 1.62 1.94V217h-.86v-3c0-.56-.07-1.31-.89-1.31-1 0-1.1 1-1.1 1.56V217h-.86v-3c0-.35 0-1.38-.9-1.38s-1.09 1-1.09 1.62V217h-.86zM255 212h.86v5H255v-.7a2.1 2.1 0 0 1-1.7.84 2.63 2.63 0 0 1 0-5.24 2.06 2.06 0 0 1 1.7.83zm-3.24 2.48a1.66 1.66 0 0 0 1.63 1.87 1.86 1.86 0 0 0 0-3.71 1.65 1.65 0 0 0-1.64 1.84zM261.18 212h.82v4.86a3.13 3.13 0 0 1-.48 2 2.42 2.42 0 0 1-2 .92 2.47 2.47 0 0 1-1.78-.67 2.24 2.24 0 0 1-.65-1.61h.91a1.57 1.57 0 0 0 .38 1 1.54 1.54 0 0 0 1.2.48 1.4 1.4 0 0 0 1.32-.7 2.31 2.31 0 0 0 .28-1.27v-.72a2.1 2.1 0 0 1-1.7.84 2.38 2.38 0 0 1-1.7-.67 2.69 2.69 0 0 1-.72-2 2.61 2.61 0 0 1 .72-1.93 2.45 2.45 0 0 1 1.7-.67 2.07 2.07 0 0 1 1.7.83zm-2.74 1.12a1.9 1.9 0 0 0-.5 1.37 1.92 1.92 0 0 0 .56 1.46 1.51 1.51 0 0 0 1.07.41 1.47 1.47 0 0 0 1.09-.42 2 2 0 0 0 .56-1.44 2 2 0 0 0-.53-1.4 1.59 1.59 0 0 0-1.13-.44 1.54 1.54 0 0 0-1.12.45zM263.56 212h.86v.58a1.76 1.76 0 0 1 1.43-.7 1.69 1.69 0 0 1 1.43.68 2.22 2.22 0 0 1 .29 1.33V217h-.86v-3.06a1.46 1.46 0 0 0-.23-.91 1 1 0 0 0-.82-.36 1.09 1.09 0 0 0-.87.38 2.1 2.1 0 0 0-.36 1.34V217h-.86zM272.89 212h.86v5h-.86v-.7a2.1 2.1 0 0 1-1.7.84 2.63 2.63 0 0 1 0-5.24 2.06 2.06 0 0 1 1.7.83zm-3.24 2.48a1.66 1.66 0 0 0 1.63 1.87 1.86 1.86 0 0 0 0-3.71 1.65 1.65 0 0 0-1.63 1.84zM281.36 212h.86v5h-.86v-.7a2.1 2.1 0 0 1-1.7.84 2.63 2.63 0 0 1 0-5.24 2.06 2.06 0 0 1 1.7.83zm-3.24 2.48a1.66 1.66 0 0 0 1.63 1.87 1.86 1.86 0 0 0 0-3.71 1.65 1.65 0 0 0-1.63 1.84zM284.6 208.23V217h-.86v-8.74zM286.55 209.5a.61.61 0 1 1-.61.61.61.61 0 0 1 .61-.61zm.45 2.5v5h-.86v-5zM292.31 212h.86v7.74h-.86v-3.45a2.1 2.1 0 0 1-1.7.84 2.63 2.63 0 0 1 0-5.24 2.06 2.06 0 0 1 1.7.83zm-3.24 2.48a1.66 1.66 0 0 0 1.63 1.87 1.86 1.86 0 0 0 0-3.71 1.65 1.65 0 0 0-1.63 1.84zM295.55 214.9a1.69 1.69 0 0 0 .24 1.07 1.19 1.19 0 0 0 1.75 0 1.69 1.69 0 0 0 .24-1.07V212h.86v3a2 2 0 0 1-.46 1.5 2.17 2.17 0 0 1-3 0 2 2 0 0 1-.46-1.5v-3h.86zM304 212h.86v5H304v-.7a2.1 2.1 0 0 1-1.7.84 2.63 2.63 0 0 1 0-5.24 2.06 2.06 0 0 1 1.7.83zm-3.24 2.48a1.66 1.66 0 0 0 1.63 1.87 1.86 1.86 0 0 0 0-3.71 1.65 1.65 0 0 0-1.66 1.84zM306.35 212h.86v.53a1.45 1.45 0 0 1 1.24-.65 1.49 1.49 0 0 1 1.36.8 1.66 1.66 0 0 1 1.5-.8c1.48 0 1.62 1.24 1.62 1.94V217h-.86v-3c0-.56-.07-1.31-.89-1.31-1 0-1.1 1-1.1 1.56V217h-.86v-3c0-.35 0-1.38-.9-1.38s-1.09 1-1.09 1.62V217h-.86zM321.14 215.7a3 3 0 0 1-.61.8 2.42 2.42 0 0 1-1.66.61 2.38 2.38 0 0 1-2.46-2.6 2.41 2.41 0 0 1 2.41-2.64 2.23 2.23 0 0 1 1.88.91 3.33 3.33 0 0 1 .47 1.87h-3.87a1.59 1.59 0 0 0 1.58 1.69 1.52 1.52 0 0 0 1-.36 2 2 0 0 0 .52-.68zm-.85-1.76a1.49 1.49 0 0 0-1.46-1.3 1.51 1.51 0 0 0-1.46 1.3zM322.38 212h.86v.54a1.38 1.38 0 0 1 1.13-.66 1.82 1.82 0 0 1 .77.2l-.41.78a.89.89 0 0 0-.5-.17.84.84 0 0 0-.7.31 2.15 2.15 0 0 0-.29 1.34V217h-.86zM329.37 212h.86v5h-.86v-.7a2.1 2.1 0 0 1-1.7.84 2.63 2.63 0 0 1 0-5.24 2.06 2.06 0 0 1 1.7.83zm-3.24 2.48a1.66 1.66 0 0 0 1.63 1.87 1.86 1.86 0 0 0 0-3.71 1.65 1.65 0 0 0-1.63 1.84zM332.64 212.79V217h-.86v-4.19h-.53V212h.53v-1.8h.86v1.8h.86v.79zM336.72 212l1.49 3.36 1.49-3.36h1l-2.45 5.3-2.45-5.3zM341.14 214.5a2.64 2.64 0 1 1 2.64 2.61 2.56 2.56 0 0 1-2.64-2.61zm.89 0a1.75 1.75 0 1 0 1.75-1.86 1.73 1.73 0 0 0-1.78 1.86zM348.48 208.23V217h-.86v-8.74zM350.85 214.9a1.69 1.69 0 0 0 .24 1.07 1.19 1.19 0 0 0 1.75 0 1.69 1.69 0 0 0 .24-1.07V212h.86v3a2 2 0 0 1-.46 1.5 2.17 2.17 0 0 1-3 0 2 2 0 0 1-.48-1.5v-3h.86zM356.35 212.79V217h-.86v-4.19H355V212h.53v-1.8h.86v1.8h.86v.79zM358.77 219.73h-.86V212h.86v.7a2.14 2.14 0 0 1 1.7-.82 2.46 2.46 0 0 1 2.42 2.64 2.42 2.42 0 0 1-2.39 2.6 2.11 2.11 0 0 1-1.74-.84zm3.24-5.22a1.71 1.71 0 0 0-1.63-1.87 1.73 1.73 0 0 0-1.66 1.86 1.7 1.7 0 0 0 1.67 1.85 1.68 1.68 0 0 0 1.61-1.84zM367.92 212h.86v5h-.86v-.7a2.1 2.1 0 0 1-1.7.84 2.63 2.63 0 0 1 0-5.24 2.06 2.06 0 0 1 1.7.83zm-3.24 2.48a1.66 1.66 0 0 0 1.63 1.87 1.86 1.86 0 0 0 0-3.71 1.65 1.65 0 0 0-1.63 1.84zM371.18 212.79V217h-.86v-4.19h-.53V212h.53v-1.8h.86v1.8h.82v.79zM373.29 215.89a.6.6 0 1 1-.6.6.61.61 0 0 1 .6-.6zM378.74 213.88a2.28 2.28 0 0 0 .64 1.94 2.14 2.14 0 0 0 2.64 0 2.28 2.28 0 0 0 .64-1.94V209h.89v5.15A3.09 3.09 0 0 1 383 216a3.07 3.07 0 0 1-4.68 0 3.09 3.09 0 0 1-.5-1.92V209h.89zM386.16 212.79V217h-.86v-4.19h-.53V212h.53v-1.8h.86v1.8h.84v.79zM390.24 212l1.47 3.38 1.56-3.77 1.55 3.77 1.49-3.38h1l-2.47 5.32-1.54-3.72-1.54 3.72-2.48-5.32zM398.49 209.5a.61.61 0 1 1-.61.61.61.61 0 0 1 .61-.61zm.43 2.49v5h-.86v-5zM402.49 213.15a.76.76 0 0 0-.7-.5.55.55 0 0 0-.6.56c0 .36.24.47.8.71a3 3 0 0 1 1.25.77 1.18 1.18 0 0 1 .26.8 1.58 1.58 0 0 1-1.71 1.63 1.78 1.78 0 0 1-1.74-1.27l.74-.31a1.13 1.13 0 0 0 1 .82.77.77 0 0 0 .82-.79c0-.47-.34-.62-.8-.83a3.25 3.25 0 0 1-1.21-.73 1.08 1.08 0 0 1-.23-.73 1.34 1.34 0 0 1 1.45-1.39 1.44 1.44 0 0 1 1.37.9zM405 209.5a.61.61 0 1 1-.61.61.61.61 0 0 1 .61-.61zm.43 2.49v5h-.86v-5z" fill="#333"/><path fill="#999" stroke="gray" stroke-miterlimit="10" stroke-width=".25" d="M89.73 79.07h.24v141.86h-.24zM63.36 79.07h.24v141.86h-.24zM116.09 79.07h.24v141.86h-.24zM151.4 79.06h.24v141.86h-.24zM28.04 79.09h.24v141.86h-.24z"/><path fill="#999" stroke="gray" stroke-miterlimit="10" stroke-width=".25" d="M18.88 149.88h141.86v.24H18.88zM18.88 123.52h141.86v.24H18.88zM18.88 176.24h141.86v.24H18.88zM18.89 211.55h141.86v.24H18.89zM18.88 88.2h141.86v.24H18.88z"/><path fill="#999" stroke="gray" stroke-miterlimit="10" stroke-width=".25" d="M18.835 79.147l.17-.17 141.86 141.86-.17.17z"/><path fill="#999" stroke="gray" stroke-miterlimit="10" stroke-width=".25" d="M18.835 220.838l141.86-141.86.17.17-141.86 141.86z"/><path d="M89.81 187.35a37.38 37.38 0 1 1 26.44-10.95 37.14 37.14 0 0 1-26.44 10.95zm0-74.53a37.14 37.14 0 1 0 26.27 10.88 36.9 36.9 0 0 0-26.27-10.88z" fill="#999" stroke="gray" stroke-miterlimit="10" stroke-width=".25"/><path d="M89.81 211.68a61.52 61.52 0 1 1 24-4.85 61.33 61.33 0 0 1-24 4.85zm0-123.19a61.28 61.28 0 1 0 23.93 4.83 61.09 61.09 0 0 0-23.93-4.83z" fill="#999" stroke="gray" stroke-miterlimit="10" stroke-width=".25"/><g data-name="120px icon"><path d="M116.92 221H62.74c-8 0-14.39 0-19.88-1.16a28 28 0 0 1-14.79-8.13A28 28 0 0 1 19.94 197c-1.16-5.49-1.16-11.84-1.16-19.88v-54.21c0-8 0-14.39 1.16-19.88a28 28 0 0 1 8.13-14.79 28 28 0 0 1 14.79-8.13C48.35 79 54.7 79 62.74 79h54.18c8 0 14.39 0 19.88 1.16A30.22 30.22 0 0 1 159.72 103c1.16 5.49 1.16 11.84 1.16 19.88v54.18c0 8 0 14.39-1.16 19.88a30.22 30.22 0 0 1-22.92 22.92C131.31 221 125 221 116.92 221zM62.74 79.19c-8 0-14.37 0-19.83 1.15a27.82 27.82 0 0 0-14.68 8.06 27.82 27.82 0 0 0-8.06 14.67C19 108.54 19 114.88 19 122.91v54.18c0 8 0 14.37 1.15 19.83a27.82 27.82 0 0 0 8.06 14.67 27.82 27.82 0 0 0 14.67 8.06c5.47 1.15 11.81 1.15 19.83 1.15h54.18c8 0 14.37 0 19.83-1.15a30 30 0 0 0 22.73-22.73c1.15-5.47 1.15-11.81 1.15-19.83v-54.18c0-8 0-14.37-1.15-19.83a30 30 0 0 0-22.73-22.73c-5.47-1.15-11.81-1.15-19.83-1.15z" fill="#999" stroke="gray" stroke-miterlimit="10" stroke-width=".25" data-name="Rectangle 7"/></g><path d="M89.81 176.41A26.45 26.45 0 1 1 116.26 150a26.48 26.48 0 0 1-26.45 26.41zm0-52.66A26.21 26.21 0 1 0 116 150a26.24 26.24 0 0 0-26.19-26.24z" fill="#999" stroke="gray" stroke-miterlimit="10" stroke-width=".25"/><path d="M89.79 170.33a20.56 20.56 0 0 1-3.34-.28 20.39 20.39 0 0 1-16.73-16.71 20.33 20.33 0 0 1 0-6.69 20.39 20.39 0 0 1 16.73-16.73A20.34 20.34 0 0 1 93.21 170a20.27 20.27 0 0 1-3.42.33zm0-40.44a20.23 20.23 0 0 0-3.29.27A20.1 20.1 0 0 0 69.68 150a20.25 20.25 0 0 0 .28 3.32 20.1 20.1 0 0 0 39.65 0 20.1 20.1 0 0 0-19.82-23.43z" fill="#999" stroke="gray" stroke-miterlimit="10" stroke-width=".25"/><path d="M103.51 150.69c-6.93 8.18-26.08 33.16-26.14 33.23-.48.56-.74.27-.5-.48 4.06-12.15 8.95-24.74 13.87-36.53l12 1.72a1.26 1.26 0 0 1 .79 2.07zm-23.38-12.77a1.6 1.6 0 0 1-1-2.6c4.6-5.65 15.46-18.08 24.11-27.91 2.07-2.28 3.4-2.65 1.16.9a258 258 0 0 0-17.53 30.51zm34.75 5.2l-21.28-2.87c9.2-21.49 19.6-42.26 21.5-46.11a.13.13 0 0 0-.21-.15l-49.06 45.87a2.26 2.26 0 0 0 1.29 3.84l16.35 2.21a402.76 402.76 0 0 0-21.07 57.53l-.2.66c-.31 1 1.51 1.86 2.24 1C75.52 192.76 76 191.94 116.29 147a2.33 2.33 0 0 0-1.41-3.87z" fill="#666"/><path d="M198.18 109c-3.66 4.31-13.76 17.49-13.79 17.53-.25.3-.39.14-.26-.25 2.14-6.41 4.72-13.05 7.32-19.27l6.31.9a.67.67 0 0 1 .42 1.09zm-12.34-6.74a.84.84 0 0 1-.54-1.37c2.43-3 8.16-9.54 12.72-14.72 1.09-1.2 1.8-1.4.61.47a136.11 136.11 0 0 0-9.25 16.1zm18.34 2.74L193 103.52c4.86-11.34 10.34-22.3 11.34-24.33a.07.07 0 0 0-.11-.08l-25.88 24.2a1.19 1.19 0 0 0 .68 2l8.62 1.16a212.47 212.47 0 0 0-11.12 30.35l-.11.35c-.16.54.79 1 1.18.55 5.85-6.53 6.08-7 27.35-30.68a1.23 1.23 0 0 0-.74-2z" fill="#006a5a" data-name="js-logo"/><path d="M237.82 109c-3.66 4.31-13.76 17.49-13.79 17.53-.25.3-.39.14-.26-.25 2.14-6.41 4.72-13.05 7.32-19.27l6.31.9a.67.67 0 0 1 .42 1.09zm-12.34-6.74a.84.84 0 0 1-.54-1.37c2.43-3 8.16-9.54 12.72-14.72 1.09-1.2 1.8-1.4.61.47a136.11 136.11 0 0 0-9.25 16.1zm18.34 2.74l-11.22-1.52c4.86-11.34 10.34-22.3 11.34-24.33a.07.07 0 0 0-.11-.08l-25.88 24.2a1.19 1.19 0 0 0 .68 2l8.62 1.16a212.47 212.47 0 0 0-11.12 30.35l-.11.35c-.16.54.79 1 1.18.55 5.85-6.53 6.08-7 27.35-30.68a1.23 1.23 0 0 0-.74-2z" fill="#bd965a" data-name="js-logo"/><rect x="262.07" y="79.09" width="24.13" height="24.13" rx="2.55" ry="2.55" fill="#006a5a"/><rect x="291.87" y="79.09" width="24.13" height="24.13" rx="2.55" ry="2.55" fill="#3a786a"/><rect x="321.67" y="79.09" width="24.13" height="24.13" rx="2.55" ry="2.55" fill="#5b877d"/><rect x="351.47" y="79.09" width="24.13" height="24.13" rx="2.55" ry="2.55" fill="#7a9a91"/><rect x="381.27" y="79.09" width="24.13" height="24.13" rx="2.55" ry="2.55" fill="#98afa9"/><rect x="381.27" y="113.97" width="24.13" height="24.13" rx="2.55" ry="2.55" fill="#bd965a"/><rect x="351.47" y="113.97" width="24.13" height="24.13" rx="2.55" ry="2.55" fill="#c5a36f"/><rect x="321.67" y="113.97" width="24.13" height="24.13" rx="2.55" ry="2.55" fill="#ceb182"/><rect x="291.87" y="113.97" width="24.13" height="24.13" rx="2.55" ry="2.55" fill="#d7bf99"/><rect x="262.07" y="113.97" width="24.13" height="24.13" rx="2.55" ry="2.55" fill="#e0ceb1"/></svg>