<svg data-name="Layer 1" xmlns="http://www.w3.org/2000/svg" viewBox="0 0 425 300"><title>knowledge-brand</title><path fill="#e6e7e8" d="M88.12 45.59h.24v141.86h-.24zM61.75 45.59h.24v141.86h-.24zM114.48 45.59h.24v141.86h-.24zM149.79 45.59h.24v141.86h-.24zM26.43 45.61h.24v141.86h-.24z"/><path fill="#e6e7e8" d="M17.27 116.4h141.86v.24H17.27zM17.27 90.04h141.86v.24H17.27zM17.27 142.76h141.86v.24H17.27zM17.28 178.07h141.86v.24H17.28zM17.27 54.72h141.86v.24H17.27z"/><path fill="#e6e7e8" d="M17.222 45.672l.17-.17 141.86 141.86-.17.17z"/><path fill="#e6e7e8" d="M17.222 187.362l141.86-141.86.17.17-141.86 141.86z"/><path d="M88.2 153.87a37.38 37.38 0 1 1 26.44-10.95 37.14 37.14 0 0 1-26.44 10.95zm0-74.53a37.14 37.14 0 1 0 26.27 10.88A36.9 36.9 0 0 0 88.2 79.34z" fill="#e6e7e8"/><path d="M88.2 178.2a61.52 61.52 0 1 1 24-4.85 61.33 61.33 0 0 1-24 4.85zm0-123.2a61.28 61.28 0 1 0 23.93 4.83A61.09 61.09 0 0 0 88.2 55z" fill="#e6e7e8"/><g data-name="120px icon"><path d="M115.31 187.57H61.13c-8 0-14.39 0-19.88-1.16a28 28 0 0 1-14.79-8.13 28 28 0 0 1-8.13-14.79c-1.16-5.49-1.16-11.84-1.16-19.88V89.43c0-8 0-14.39 1.16-19.88a28 28 0 0 1 8.13-14.79 28 28 0 0 1 14.79-8.13c5.49-1.16 11.84-1.16 19.88-1.16h54.18c8 0 14.39 0 19.88 1.16A28 28 0 0 1 150 54.75a28 28 0 0 1 8.13 14.79c1.16 5.49 1.16 11.84 1.16 19.88v54.18c0 8 0 14.39-1.16 19.88a30.22 30.22 0 0 1-22.92 22.92c-5.51 1.17-11.86 1.17-19.9 1.17zM61.13 45.71c-8 0-14.37 0-19.83 1.15a27.82 27.82 0 0 0-14.67 8.06 27.82 27.82 0 0 0-8.06 14.67c-1.15 5.47-1.15 11.81-1.15 19.83v54.18c0 8 0 14.37 1.15 19.83a27.82 27.82 0 0 0 8.06 14.67 27.82 27.82 0 0 0 14.67 8.06c5.47 1.15 11.81 1.15 19.83 1.15h54.18c8 0 14.37 0 19.83-1.15a30 30 0 0 0 22.73-22.73C159 158 159 151.64 159 143.61V89.43c0-8 0-14.37-1.15-19.83a27.81 27.81 0 0 0-8.06-14.67 27.81 27.81 0 0 0-14.67-8.06c-5.47-1.15-11.81-1.15-19.83-1.15z" fill="#e6e7e8" data-name="Rectangle 7"/></g><path d="M88.2 142.93a26.45 26.45 0 1 1 26.45-26.45 26.48 26.48 0 0 1-26.45 26.45zm0-52.66a26.21 26.21 0 1 0 26.21 26.21 26.24 26.24 0 0 0-26.21-26.2z" fill="#e6e7e8"/><path d="M88.18 136.85a20.56 20.56 0 0 1-3.34-.28 20.39 20.39 0 0 1-16.73-16.71 20.33 20.33 0 0 1 0-6.69 20.39 20.39 0 0 1 16.73-16.73 20.34 20.34 0 0 1 6.76 40.11 20.27 20.27 0 0 1-3.42.3zm0-40.44a20.23 20.23 0 0 0-3.29.27 20.1 20.1 0 0 0-16.81 19.83 20.25 20.25 0 0 0 .28 3.32 20.1 20.1 0 0 0 39.65 0 20.1 20.1 0 0 0-19.83-23.42z" fill="#e6e7e8"/><path d="M101.91 117.21c-6.93 8.18-26.08 33.16-26.14 33.23-.48.56-.74.27-.5-.48 4.06-12.15 8.95-24.74 13.87-36.53l12 1.72a1.26 1.26 0 0 1 .79 2.07zm-23.39-12.77a1.6 1.6 0 0 1-1-2.6c4.58-5.65 15.48-18.08 24.09-27.9 2.07-2.28 3.4-2.65 1.16.9a258 258 0 0 0-17.53 30.51zm34.75 5.2L92 106.77c9.2-21.49 19.6-42.26 21.5-46.11a.13.13 0 0 0-.21-.15l-49.07 45.87a2.26 2.26 0 0 0 1.29 3.84l16.35 2.21A402.76 402.76 0 0 0 60.79 170l-.2.66c-.31 1 1.51 1.86 2.24 1 11.08-12.38 11.53-13.2 51.85-58.15a2.33 2.33 0 0 0-1.41-3.87z" fill="#333"/><path fill="#e6e7e8" d="M88.12 45.59h.24v141.86h-.24zM61.75 45.59h.24v141.86h-.24zM114.48 45.59h.24v141.86h-.24zM149.79 45.59h.24v141.86h-.24zM26.43 45.61h.24v141.86h-.24z"/><path fill="#e6e7e8" d="M17.27 116.4h141.86v.24H17.27zM17.27 90.04h141.86v.24H17.27zM17.27 142.76h141.86v.24H17.27zM17.28 178.07h141.86v.24H17.28zM17.27 54.72h141.86v.24H17.27z"/><path fill="#e6e7e8" d="M17.222 45.672l.17-.17 141.86 141.86-.17.17z"/><path fill="#e6e7e8" d="M17.222 187.362l141.86-141.86.17.17-141.86 141.86z"/><path d="M88.2 153.87a37.38 37.38 0 1 1 26.44-10.95 37.14 37.14 0 0 1-26.44 10.95zm0-74.53a37.14 37.14 0 1 0 26.27 10.88A36.9 36.9 0 0 0 88.2 79.34z" fill="#e6e7e8"/><path d="M88.2 178.2a61.52 61.52 0 1 1 24-4.85 61.33 61.33 0 0 1-24 4.85zm0-123.2a61.28 61.28 0 1 0 23.93 4.83A61.09 61.09 0 0 0 88.2 55z" fill="#e6e7e8"/><g data-name="120px icon"><path d="M115.31 187.57H61.13c-8 0-14.39 0-19.88-1.16a28 28 0 0 1-14.79-8.13 28 28 0 0 1-8.13-14.79c-1.16-5.49-1.16-11.84-1.16-19.88V89.43c0-8 0-14.39 1.16-19.88a28 28 0 0 1 8.13-14.79 28 28 0 0 1 14.79-8.13c5.49-1.16 11.84-1.16 19.88-1.16h54.18c8 0 14.39 0 19.88 1.16A28 28 0 0 1 150 54.75a28 28 0 0 1 8.13 14.79c1.16 5.49 1.16 11.84 1.16 19.88v54.18c0 8 0 14.39-1.16 19.88a30.22 30.22 0 0 1-22.92 22.92c-5.51 1.17-11.86 1.17-19.9 1.17zM61.13 45.71c-8 0-14.37 0-19.83 1.15a27.82 27.82 0 0 0-14.67 8.06 27.82 27.82 0 0 0-8.06 14.67c-1.15 5.47-1.15 11.81-1.15 19.83v54.18c0 8 0 14.37 1.15 19.83a27.82 27.82 0 0 0 8.06 14.67 27.82 27.82 0 0 0 14.67 8.06c5.47 1.15 11.81 1.15 19.83 1.15h54.18c8 0 14.37 0 19.83-1.15a30 30 0 0 0 22.73-22.73C159 158 159 151.64 159 143.61V89.43c0-8 0-14.37-1.15-19.83a27.81 27.81 0 0 0-8.06-14.67 27.81 27.81 0 0 0-14.67-8.06c-5.47-1.15-11.81-1.15-19.83-1.15z" fill="#e6e7e8" data-name="Rectangle 7"/></g><path d="M88.2 142.93a26.45 26.45 0 1 1 26.45-26.45 26.48 26.48 0 0 1-26.45 26.45zm0-52.66a26.21 26.21 0 1 0 26.21 26.21 26.24 26.24 0 0 0-26.21-26.2z" fill="#e6e7e8"/><path d="M88.18 136.85a20.56 20.56 0 0 1-3.34-.28 20.39 20.39 0 0 1-16.73-16.71 20.33 20.33 0 0 1 0-6.69 20.39 20.39 0 0 1 16.73-16.73 20.34 20.34 0 0 1 6.76 40.11 20.27 20.27 0 0 1-3.42.3zm0-40.44a20.23 20.23 0 0 0-3.29.27 20.1 20.1 0 0 0-16.81 19.83 20.25 20.25 0 0 0 .28 3.32 20.1 20.1 0 0 0 39.65 0 20.1 20.1 0 0 0-19.83-23.42z" fill="#e6e7e8"/><path d="M101.91 117.21c-6.93 8.18-26.08 33.16-26.14 33.23-.48.56-.74.27-.5-.48 4.06-12.15 8.95-24.74 13.87-36.53l12 1.72a1.26 1.26 0 0 1 .79 2.07zm-23.39-12.77a1.6 1.6 0 0 1-1-2.6c4.58-5.65 15.48-18.08 24.09-27.9 2.07-2.28 3.4-2.65 1.16.9a258 258 0 0 0-17.53 30.51zm34.75 5.2L92 106.77c9.2-21.49 19.6-42.26 21.5-46.11a.13.13 0 0 0-.21-.15l-49.07 45.87a2.26 2.26 0 0 0 1.29 3.84l16.35 2.21A402.76 402.76 0 0 0 60.79 170l-.2.66c-.31 1 1.51 1.86 2.24 1 11.08-12.38 11.53-13.2 51.85-58.15a2.33 2.33 0 0 0-1.41-3.87z" fill="#333" data-name="js-logo"/><path d="M39.7 225.63c-3.66 4.31-13.76 17.49-13.79 17.53-.25.3-.39.14-.26-.25 2.14-6.41 4.72-13.05 7.32-19.27l6.31.9a.67.67 0 0 1 .42 1.09zm-12.34-6.74a.84.84 0 0 1-.54-1.37c2.43-3 8.16-9.54 12.72-14.72 1.09-1.2 1.8-1.4.61.47a136.11 136.11 0 0 0-9.25 16.1zm18.33 2.74l-11.22-1.52c4.86-11.34 10.34-22.3 11.34-24.33a.07.07 0 0 0-.11-.08l-25.88 24.2a1.19 1.19 0 0 0 .68 2l8.62 1.16A212.47 212.47 0 0 0 18 253.46l-.11.35c-.16.54.79 1 1.18.55 5.85-6.53 6.08-7 27.35-30.68a1.23 1.23 0 0 0-.74-2z" fill="#006a5a" data-name="js-logo"/><path d="M77 225.63c-3.66 4.31-13.76 17.49-13.79 17.53-.25.3-.39.14-.26-.25 2.14-6.41 4.72-13.05 7.32-19.27l6.31.9a.67.67 0 0 1 .42 1.09zm-12.34-6.74a.84.84 0 0 1-.54-1.37c2.43-3 8.16-9.54 12.72-14.72 1.09-1.2 1.8-1.4.61.47a136.11 136.11 0 0 0-9.25 16.1zM83 221.64l-11.22-1.52c4.86-11.34 10.34-22.3 11.34-24.33a.07.07 0 0 0-.11-.08l-25.88 24.2a1.19 1.19 0 0 0 .68 2l8.62 1.16a212.47 212.47 0 0 0-11.12 30.35l-.11.35c-.16.54.79 1 1.18.55 5.85-6.53 6.08-7 27.35-30.68a1.23 1.23 0 0 0-.74-2z" fill="#5b877d" data-name="js-logo"/><path d="M114.23 225.63c-3.66 4.31-13.76 17.49-13.79 17.53-.25.3-.39.14-.26-.25 2.14-6.41 4.72-13.05 7.32-19.27l6.31.9a.67.67 0 0 1 .42 1.09zm-12.34-6.74a.84.84 0 0 1-.54-1.37c2.43-3 8.16-9.54 12.72-14.72 1.09-1.2 1.8-1.4.61.47a136.11 136.11 0 0 0-9.25 16.1zm18.33 2.74L109 220.12c4.86-11.34 10.34-22.3 11.34-24.33a.07.07 0 0 0-.11-.08l-25.88 24.2a1.19 1.19 0 0 0 .68 2l8.62 1.16a212.47 212.47 0 0 0-11.12 30.35l-.11.35c-.16.54.79 1 1.18.55 5.85-6.53 6.08-7 27.35-30.68a1.23 1.23 0 0 0-.74-2z" fill="#ceb182" data-name="js-logo"/><path d="M151.5 225.63c-3.66 4.31-13.76 17.49-13.79 17.53-.25.3-.39.14-.26-.25 2.14-6.41 4.72-13.05 7.32-19.27l6.31.9a.67.67 0 0 1 .42 1.09zm-12.34-6.74a.84.84 0 0 1-.54-1.37c2.43-3 8.16-9.54 12.72-14.72 1.09-1.2 1.8-1.4.61.47a136.11 136.11 0 0 0-9.25 16.1zm18.33 2.74l-11.22-1.52c4.86-11.34 10.34-22.3 11.34-24.33a.07.07 0 0 0-.11-.08l-25.88 24.2a1.19 1.19 0 0 0 .68 2l8.62 1.16a212.47 212.47 0 0 0-11.12 30.35l-.11.35c-.16.54.79 1 1.18.55 5.85-6.53 6.08-7 27.35-30.68a1.23 1.23 0 0 0-.74-2z" fill="#bd965a" data-name="js-logo"/><rect x="180.84" y="157.37" width="38.22" height="38.22" rx="4.03" ry="4.03" fill="#006a5a"/><rect x="228.03" y="157.37" width="38.22" height="38.22" rx="4.03" ry="4.03" fill="#3a786a"/><rect x="275.23" y="157.37" width="38.22" height="38.22" rx="4.03" ry="4.03" fill="#5b877d"/><rect x="322.42" y="157.37" width="38.22" height="38.22" rx="4.03" ry="4.03" fill="#7a9a91"/><rect x="369.61" y="157.37" width="38.22" height="38.22" rx="4.03" ry="4.03" fill="#98afa9"/><rect x="369.61" y="212.61" width="38.22" height="38.22" rx="4.03" ry="4.03" fill="#bd965a"/><rect x="322.42" y="212.61" width="38.22" height="38.22" rx="4.03" ry="4.03" fill="#c5a36f"/><rect x="275.23" y="212.61" width="38.22" height="38.22" rx="4.03" ry="4.03" fill="#ceb182"/><rect x="228.03" y="212.61" width="38.22" height="38.22" rx="4.03" ry="4.03" fill="#d7bf99"/><rect x="180.84" y="212.61" width="38.22" height="38.22" rx="4.03" ry="4.03" fill="#e0ceb1"/><path d="M184.39 62.25l-.39 1.64h-5l4.58-13.22h5.31l4.72 13.22h-5.09l-.52-1.64zm1.94-7.16h-.18a6.9 6.9 0 0 1-.22 1.49l-.65 2.54h1.92l-.62-2.54a14.92 14.92 0 0 1-.24-1.49zM201 55.69a2.18 2.18 0 0 1-.16-.79v-.26h4.46v9.26h-4.44v-.32a4.08 4.08 0 0 1 .18-.85h-.14a3.42 3.42 0 0 1-2.77 1.43 3.48 3.48 0 0 1-2.62-1.09 5.23 5.23 0 0 1-1.39-3.75 5.3 5.3 0 0 1 1.45-3.82 3.68 3.68 0 0 1 2.74-1.11 3.06 3.06 0 0 1 2.58 1.37zm-2 4.54a1 1 0 0 0 .77.32 1.09 1.09 0 0 0 .77-.3 1.45 1.45 0 0 0 .44-1 1.3 1.3 0 0 0-.4-1 1.18 1.18 0 0 0-1.59 0 1.38 1.38 0 0 0-.4 1 1.3 1.3 0 0 0 .41.98zM212.18 50.67h5.77a5.92 5.92 0 0 1 3.94 1.11 3.41 3.41 0 0 1 1 2.58 2.56 2.56 0 0 1-1.7 2.64v.12a3.06 3.06 0 0 1 1.39.79 3 3 0 0 1 1 2.3 3.23 3.23 0 0 1-1.25 2.68 5.3 5.3 0 0 1-3.39 1h-6.72zm4.44 5.07h.75a1.4 1.4 0 0 0 .91-.3 1 1 0 0 0 .26-.69.88.88 0 0 0-.3-.69 1.57 1.57 0 0 0-.87-.22h-.75zm0 5h1a2 2 0 0 0 1-.22 1 1 0 0 0 .46-.89 1 1 0 0 0-.36-.79 1.71 1.71 0 0 0-1.05-.28h-1zM225.22 49.44h4.52v5.19a4.38 4.38 0 0 1-.22 1.29h.14a3 3 0 0 1 1-1.05 3.31 3.31 0 0 1 4.14.54 5.5 5.5 0 0 1 1.53 4 5.2 5.2 0 0 1-1.39 3.77 3.55 3.55 0 0 1-2.6 1 3 3 0 0 1-1.88-.59 3.16 3.16 0 0 1-1-1.09l-.14.06a2.17 2.17 0 0 1 .14.71v.65h-4.3zm6.32 8.72a1.26 1.26 0 0 0-.83-.36 1.11 1.11 0 0 0-.81.32 1.39 1.39 0 0 0-.38 1 1.75 1.75 0 0 0 .38 1.15 1.16 1.16 0 0 0 .79.32 1.11 1.11 0 0 0 .85-.38 1.42 1.42 0 0 0 .4-1 1.47 1.47 0 0 0-.4-1.05zM252.37 63.65a10.09 10.09 0 0 1-3.33.54 6.94 6.94 0 0 1-4.88-1.92 6.83 6.83 0 0 1-1.92-4.88 7.07 7.07 0 0 1 2-5 6.83 6.83 0 0 1 5-2 10 10 0 0 1 3.15.51l.14 5a4.19 4.19 0 0 0-2.79-1.31 2.6 2.6 0 0 0-1.92.81 2.8 2.8 0 0 0-.69 1.88 2.62 2.62 0 0 0 .77 1.9 2.73 2.73 0 0 0 2 .75 3.7 3.7 0 0 0 2.68-1.25zM261.28 63.68a4.89 4.89 0 0 1-2.28.48 5.39 5.39 0 0 1-3.9-1.37 4.62 4.62 0 0 1-1.33-3.39 5.18 5.18 0 0 1 1.43-3.69 4.83 4.83 0 0 1 3.59-1.33 7.42 7.42 0 0 1 2.62.48v3.77a2.44 2.44 0 0 0-1.68-.73 1.31 1.31 0 0 0-1 .36 1.49 1.49 0 0 0-.38 1 1.35 1.35 0 0 0 .38 1 1.31 1.31 0 0 0 1 .4 2.76 2.76 0 0 0 1.78-.73zM268.34 50.67H271a7.19 7.19 0 0 1 4.88 1.55 6.45 6.45 0 0 1 2.26 5.07 6.29 6.29 0 0 1-2.32 5.07 6.62 6.62 0 0 1-4.82 1.53h-2.68zm1.47 11.83h1.29a5.65 5.65 0 0 0 3.79-1.19 5.06 5.06 0 0 0 1.78-4c0-3.17-2.22-5.23-5.57-5.23h-1.3zM286.81 49.44h1.43v14.45h-1.43v-1.15a3.47 3.47 0 0 1-2.81 1.39c-2.08 0-4-1.47-4-4.36a4 4 0 0 1 4-4.3 3.4 3.4 0 0 1 2.81 1.37zm-5.35 10.33c0 1.76 1 3.09 2.7 3.09a3.08 3.08 0 0 0 0-6.12 2.73 2.73 0 0 0-2.7 3.03zM302.76 52.06h-5.39V56h5.23v1.39h-5.23v5.13h5.39v1.39h-6.86V50.67h6.86zM312.39 61.79a4.91 4.91 0 0 1-1 1.33 4 4 0 0 1-2.73 1 3.94 3.94 0 0 1-4.06-4.3c0-2.46 1.51-4.36 4-4.36a3.68 3.68 0 0 1 3.08 1.54 5.53 5.53 0 0 1 .77 3.09H306a2.63 2.63 0 0 0 2.62 2.79 2.5 2.5 0 0 0 1.68-.59 3.28 3.28 0 0 0 .85-1.13zM311 58.88a2.46 2.46 0 0 0-2.42-2.14 2.5 2.5 0 0 0-2.42 2.14zM325.63 52.06h-4.56V56h4.4v1.39h-4.4v6.54h-1.47V50.67h6zM329.31 57v6.92h-1.43V57h-.79v-1.33h.79v-3.59a2.85 2.85 0 0 1 .79-2.32 2.56 2.56 0 0 1 1.64-.54 2.77 2.77 0 0 1 1 .18v1.39a2.58 2.58 0 0 0-.93-.18 1 1 0 0 0-.91.44 2.48 2.48 0 0 0-.18 1.19v3.43h2V57zM341.22 63.89v-9l-2 .16v-4.38H346v13.22zM360.29 63.89h-13.1l5.43-4.82a14.93 14.93 0 0 0 1.86-1.86 3.12 3.12 0 0 0 .89-1.88 1 1 0 0 0-.32-.73 1.07 1.07 0 0 0-.79-.3 1 1 0 0 0-.85.4 2.46 2.46 0 0 0-.32 1.27h-4.68a5.65 5.65 0 0 1 1.29-3.84 6.39 6.39 0 0 1 4.7-1.74 6.18 6.18 0 0 1 4.5 1.61 4.43 4.43 0 0 1-.16 6.28 9.43 9.43 0 0 1-3.27 1.84v.14a18.21 18.21 0 0 1 2.8-.38l2-.1zM373.35 57.71a2.8 2.8 0 0 1 .81 2.14 3.75 3.75 0 0 1-1.15 2.8 6.61 6.61 0 0 1-4.82 1.55c-2.89 0-4.3-.91-5-1.61a4.71 4.71 0 0 1-1.29-3.25h4.84a1.62 1.62 0 0 0 .46 1.17 1.4 1.4 0 0 0 1.84 0 1.26 1.26 0 0 0 .36-.89 1.4 1.4 0 0 0-.32-.89 1.57 1.57 0 0 0-1.55-.34v-2.76a1.23 1.23 0 0 0 1.07-.2 1 1 0 0 0 .32-.81.86.86 0 0 0-.28-.65.88.88 0 0 0-.63-.22.86.86 0 0 0-.59.24 1 1 0 0 0-.26.77h-4.72a4.14 4.14 0 0 1 1.9-3.47 6.93 6.93 0 0 1 3.75-.91 6.13 6.13 0 0 1 4.4 1.43 3.35 3.35 0 0 1 1.09 2.44 2.78 2.78 0 0 1-.58 1.85 2.82 2.82 0 0 1-1 .69v.1a3.26 3.26 0 0 1 1.35.82zM383.77 60h1.63v1.4h-1.63v2.5h-1.47v-2.5h-6.78l8.24-11.46zm-1.47 0v-5.8l-4.18 5.8zM395.88 52h-4.24l-.85 2.85a3.58 3.58 0 0 1 .83-.08 4.29 4.29 0 0 1 4.38 4.6 4.63 4.63 0 0 1-4.82 4.76 4.48 4.48 0 0 1-3-1 5.5 5.5 0 0 1-1.15-1.35l1.17-.83a3.08 3.08 0 0 0 .89 1.07 3.24 3.24 0 0 0 2.14.79 3.28 3.28 0 0 0 3.25-3.39 3.13 3.13 0 0 0-3.25-3.25 4.32 4.32 0 0 0-2.56.91l1.92-6.38h5.25zM405.41 51.19l-3 4.22a3.79 3.79 0 0 1 1.17-.18 4.19 4.19 0 0 1 4.28 4.36 4.56 4.56 0 0 1-9.12 0 5.22 5.22 0 0 1 1.09-3l4.5-6.24zm1 8.44a3.09 3.09 0 0 0-6.18 0 3.09 3.09 0 1 0 6.18 0z" fill="#006a5a"/><path d="M184.39 88.48l-.39 1.65h-5l4.58-13.22h5.31l4.72 13.22h-5.09l-.52-1.65zm1.94-7.16h-.18a6.9 6.9 0 0 1-.22 1.49l-.65 2.54h1.92l-.62-2.54a14.92 14.92 0 0 1-.24-1.48zM201 81.92a2.18 2.18 0 0 1-.16-.79v-.26h4.46v9.26h-4.44v-.32A4.08 4.08 0 0 1 201 89h-.14a3.42 3.42 0 0 1-2.77 1.43 3.48 3.48 0 0 1-2.62-1.09 5.23 5.23 0 0 1-1.39-3.75 5.3 5.3 0 0 1 1.45-3.82 3.68 3.68 0 0 1 2.74-1.11 3.06 3.06 0 0 1 2.61 1.34zm-2 4.54a1 1 0 0 0 .77.32 1.09 1.09 0 0 0 .77-.3 1.45 1.45 0 0 0 .44-1 1.3 1.3 0 0 0-.4-1 1.18 1.18 0 0 0-1.59 0 1.38 1.38 0 0 0-.4 1 1.3 1.3 0 0 0 .41.98zM212.18 76.91h5.77a5.92 5.92 0 0 1 3.94 1.09 3.41 3.41 0 0 1 1 2.58 2.56 2.56 0 0 1-1.7 2.64v.12a3.06 3.06 0 0 1 1.39.79 3 3 0 0 1 1 2.3 3.23 3.23 0 0 1-1.25 2.68 5.3 5.3 0 0 1-3.39 1h-6.72zm4.44 5.09h.75a1.4 1.4 0 0 0 .91-.3 1 1 0 0 0 .26-.69.88.88 0 0 0-.3-.69 1.57 1.57 0 0 0-.87-.22h-.75zm0 5h1a2 2 0 0 0 1-.22 1 1 0 0 0 .46-.89 1 1 0 0 0-.36-.79 1.71 1.71 0 0 0-1.05-.28h-1zM225.22 75.68h4.52v5.19a4.38 4.38 0 0 1-.22 1.29h.14a3 3 0 0 1 1-1.05 3.31 3.31 0 0 1 4.14.54 5.5 5.5 0 0 1 1.53 4 5.2 5.2 0 0 1-1.39 3.77 3.55 3.55 0 0 1-2.6 1 3 3 0 0 1-1.88-.59 3.16 3.16 0 0 1-1-1.09l-.14.06a2.17 2.17 0 0 1 .14.71v.65h-4.3zm6.32 8.72a1.26 1.26 0 0 0-.83-.36 1.11 1.11 0 0 0-.81.32 1.39 1.39 0 0 0-.38 1 1.75 1.75 0 0 0 .38 1.15 1.16 1.16 0 0 0 .79.32 1.11 1.11 0 0 0 .85-.38 1.42 1.42 0 0 0 .4-1 1.47 1.47 0 0 0-.4-1.05zM252.37 89.89a10.09 10.09 0 0 1-3.33.54 6.94 6.94 0 0 1-4.88-1.92 6.83 6.83 0 0 1-1.92-4.88 7.07 7.07 0 0 1 2-5 6.83 6.83 0 0 1 5-2 10 10 0 0 1 3.15.51l.14 5a4.19 4.19 0 0 0-2.79-1.31 2.6 2.6 0 0 0-1.92.81 2.8 2.8 0 0 0-.69 1.88 2.62 2.62 0 0 0 .77 1.9 2.73 2.73 0 0 0 2 .75 3.7 3.7 0 0 0 2.61-1.17zM261.28 89.91a4.89 4.89 0 0 1-2.28.48 5.39 5.39 0 0 1-3.9-1.39 4.62 4.62 0 0 1-1.33-3.39 5.18 5.18 0 0 1 1.43-3.69 4.83 4.83 0 0 1 3.59-1.33 7.42 7.42 0 0 1 2.62.48v3.77a2.44 2.44 0 0 0-1.68-.73 1.31 1.31 0 0 0-1 .36 1.49 1.49 0 0 0-.38 1 1.35 1.35 0 0 0 .38 1 1.31 1.31 0 0 0 1 .4 2.76 2.76 0 0 0 1.78-.73zM268.34 76.91H271a7.19 7.19 0 0 1 4.88 1.55 6.45 6.45 0 0 1 2.26 5.07 6.29 6.29 0 0 1-2.32 5.07 6.62 6.62 0 0 1-4.82 1.53h-2.68zm1.47 11.83h1.29a5.65 5.65 0 0 0 3.79-1.19 5.06 5.06 0 0 0 1.78-4c0-3.17-2.22-5.23-5.57-5.23h-1.3zM286.81 75.68h1.43v14.45h-1.43V89a3.47 3.47 0 0 1-2.81 1.36c-2.08 0-4-1.47-4-4.36a4 4 0 0 1 4-4.3 3.4 3.4 0 0 1 2.81 1.37zM281.46 86c0 1.76 1 3.09 2.7 3.09a3.08 3.08 0 0 0 0-6.12 2.73 2.73 0 0 0-2.7 3.03zM302.76 78.29h-5.39v3.92h5.23v1.39h-5.23v5.13h5.39v1.39h-6.86V76.91h6.86zM312.39 88a4.91 4.91 0 0 1-1 1.33 4 4 0 0 1-2.73 1 3.94 3.94 0 0 1-4.06-4.3c0-2.46 1.51-4.36 4-4.36a3.68 3.68 0 0 1 3.11 1.51 5.53 5.53 0 0 1 .77 3.09H306a2.63 2.63 0 0 0 2.62 2.79 2.5 2.5 0 0 0 1.68-.59 3.28 3.28 0 0 0 .85-1.13zM311 85.11a2.46 2.46 0 0 0-2.43-2.11 2.5 2.5 0 0 0-2.42 2.14zM325.63 78.29h-4.56v3.9h4.4v1.39h-4.4v6.54h-1.47V76.91h6zM329.31 83.21v6.92h-1.43v-6.92h-.79V81.9h.79v-3.59a2.85 2.85 0 0 1 .79-2.32 2.56 2.56 0 0 1 1.64-.54 2.77 2.77 0 0 1 1 .18V77a2.58 2.58 0 0 0-.93-.18 1 1 0 0 0-.91.44 2.48 2.48 0 0 0-.18 1.19v3.45h2v1.31zM341.22 90.13v-9l-2 .16v-4.38H346v13.22zM360.29 90.13h-13.1l5.43-4.82a14.93 14.93 0 0 0 1.86-1.86 3.12 3.12 0 0 0 .89-1.88 1 1 0 0 0-.32-.73 1.07 1.07 0 0 0-.79-.3 1 1 0 0 0-.85.4 2.46 2.46 0 0 0-.32 1.27h-4.68a5.65 5.65 0 0 1 1.29-3.84 6.39 6.39 0 0 1 4.7-1.74 6.18 6.18 0 0 1 4.5 1.67 4.43 4.43 0 0 1-.16 6.28 9.43 9.43 0 0 1-3.27 1.84v.14a18.21 18.21 0 0 1 2.8-.38l2-.1zM373.35 83.94a2.8 2.8 0 0 1 .81 2.14 3.75 3.75 0 0 1-1.15 2.8 6.61 6.61 0 0 1-4.82 1.55c-2.89 0-4.3-.91-5-1.61a4.71 4.71 0 0 1-1.29-3.25h4.84a1.62 1.62 0 0 0 .46 1.17 1.4 1.4 0 0 0 1.84 0 1.26 1.26 0 0 0 .36-.89 1.4 1.4 0 0 0-.32-.89 1.57 1.57 0 0 0-1.55-.34v-2.76a1.23 1.23 0 0 0 1.07-.2 1 1 0 0 0 .32-.81.86.86 0 0 0-.28-.65.88.88 0 0 0-.64-.2.86.86 0 0 0-.59.24 1 1 0 0 0-.26.77h-4.72a4.14 4.14 0 0 1 1.9-3.47 6.93 6.93 0 0 1 3.75-.91 6.13 6.13 0 0 1 4.4 1.43 3.35 3.35 0 0 1 1.09 2.44 2.78 2.78 0 0 1-.63 1.86 2.82 2.82 0 0 1-1 .69v.1a3.26 3.26 0 0 1 1.41.79zM383.77 86.28h1.63v1.35h-1.63v2.5h-1.47v-2.5h-6.78l8.24-11.46zm-1.47 0v-5.85l-4.18 5.85zM395.88 78.25h-4.24l-.85 2.85a3.58 3.58 0 0 1 .83-.08 4.29 4.29 0 0 1 4.38 4.59 4.63 4.63 0 0 1-4.82 4.76 4.48 4.48 0 0 1-3-1 5.5 5.5 0 0 1-1.12-1.37l1.17-.83a3.08 3.08 0 0 0 .89 1.07 3.24 3.24 0 0 0 2.14.79 3.28 3.28 0 0 0 3.25-3.39 3.13 3.13 0 0 0-3.25-3.25 4.32 4.32 0 0 0-2.56.91l1.92-6.38h5.25zM405.41 77.42l-3 4.22a3.79 3.79 0 0 1 1.17-.18 4.19 4.19 0 0 1 4.28 4.36 4.56 4.56 0 0 1-9.12 0 5.22 5.22 0 0 1 1.09-3l4.5-6.24zm1 8.44a3.09 3.09 0 0 0-6.18 0 3.09 3.09 0 1 0 6.18 0z" fill="#5b877d"/><path d="M184.39 114.71l-.36 1.64H179l4.58-13.22h5.31l4.72 13.22h-5.09l-.44-1.64zm1.94-7.16h-.18a6.9 6.9 0 0 1-.22 1.49l-.65 2.54h1.92l-.62-2.54a14.92 14.92 0 0 1-.24-1.48zM201 108.15a2.18 2.18 0 0 1-.16-.79v-.26h4.46v9.26h-4.44v-.32a4.08 4.08 0 0 1 .18-.85h-.14a3.42 3.42 0 0 1-2.77 1.43 3.48 3.48 0 0 1-2.62-1.09 5.23 5.23 0 0 1-1.39-3.75 5.3 5.3 0 0 1 1.45-3.82 3.68 3.68 0 0 1 2.74-1.11 3.06 3.06 0 0 1 2.58 1.37zm-2 4.54a1 1 0 0 0 .77.32 1.09 1.09 0 0 0 .77-.3 1.45 1.45 0 0 0 .44-1 1.3 1.3 0 0 0-.4-1 1.18 1.18 0 0 0-1.59 0 1.38 1.38 0 0 0-.4 1 1.3 1.3 0 0 0 .41.98zM212.18 103.14h5.77a5.92 5.92 0 0 1 3.94 1.11 3.41 3.41 0 0 1 1 2.58 2.56 2.56 0 0 1-1.7 2.64v.12a3.06 3.06 0 0 1 1.39.79 3 3 0 0 1 1 2.3 3.23 3.23 0 0 1-1.25 2.68 5.3 5.3 0 0 1-3.39 1h-6.72zm4.44 5.07h.75a1.4 1.4 0 0 0 .91-.3 1 1 0 0 0 .26-.69.88.88 0 0 0-.3-.69 1.57 1.57 0 0 0-.87-.22h-.75zm0 5h1a2 2 0 0 0 1-.22 1 1 0 0 0 .46-.89 1 1 0 0 0-.36-.79 1.71 1.71 0 0 0-1.05-.28h-1zM225.22 101.91h4.52v5.19a4.38 4.38 0 0 1-.22 1.29h.14a3 3 0 0 1 1-1.05 3.31 3.31 0 0 1 4.14.54 5.5 5.5 0 0 1 1.53 4 5.2 5.2 0 0 1-1.39 3.77 3.55 3.55 0 0 1-2.6 1 3 3 0 0 1-1.88-.59 3.16 3.16 0 0 1-1-1.09l-.14.06a2.17 2.17 0 0 1 .14.71v.65h-4.3zm6.32 8.72a1.26 1.26 0 0 0-.83-.36 1.11 1.11 0 0 0-.81.32 1.39 1.39 0 0 0-.38 1 1.75 1.75 0 0 0 .38 1.15 1.16 1.16 0 0 0 .79.32 1.11 1.11 0 0 0 .85-.38 1.42 1.42 0 0 0 .4-1 1.47 1.47 0 0 0-.4-1.05zM252.37 116.12a10.09 10.09 0 0 1-3.33.54 6.94 6.94 0 0 1-4.88-1.92 6.83 6.83 0 0 1-1.92-4.88 7.07 7.07 0 0 1 2-5 6.83 6.83 0 0 1 5-2 10 10 0 0 1 3.15.51l.14 5a4.19 4.19 0 0 0-2.79-1.31 2.6 2.6 0 0 0-1.92.81 2.8 2.8 0 0 0-.69 1.88 2.62 2.62 0 0 0 .77 1.9 2.73 2.73 0 0 0 2 .75 3.7 3.7 0 0 0 2.68-1.25zM261.28 116.14a4.89 4.89 0 0 1-2.28.48 5.39 5.39 0 0 1-3.9-1.37 4.62 4.62 0 0 1-1.33-3.39 5.18 5.18 0 0 1 1.43-3.69 4.83 4.83 0 0 1 3.59-1.33 7.42 7.42 0 0 1 2.62.48v3.77a2.44 2.44 0 0 0-1.68-.73 1.31 1.31 0 0 0-1 .36 1.49 1.49 0 0 0-.38 1 1.35 1.35 0 0 0 .38 1 1.31 1.31 0 0 0 1 .4 2.76 2.76 0 0 0 1.78-.73zM268.34 103.14H271a7.19 7.19 0 0 1 4.88 1.55 6.45 6.45 0 0 1 2.26 5.07 6.29 6.29 0 0 1-2.32 5.07 6.62 6.62 0 0 1-4.84 1.53h-2.68zM269.8 115h1.29a5.65 5.65 0 0 0 3.79-1.19 5.06 5.06 0 0 0 1.78-4c0-3.17-2.22-5.23-5.57-5.23h-1.29zM286.81 101.91h1.43v14.45h-1.43v-1.15a3.47 3.47 0 0 1-2.81 1.39c-2.08 0-4-1.47-4-4.36a4 4 0 0 1 4-4.3 3.4 3.4 0 0 1 2.81 1.37zm-5.35 10.33c0 1.76 1 3.09 2.7 3.09a3.08 3.08 0 0 0 0-6.12 2.73 2.73 0 0 0-2.7 3.02zM302.76 104.53h-5.39v3.92h5.23v1.39h-5.23V115h5.39v1.39h-6.86v-13.25h6.86zM312.39 114.26a4.91 4.91 0 0 1-1 1.33 4 4 0 0 1-2.73 1 3.94 3.94 0 0 1-4.06-4.3c0-2.46 1.51-4.36 4-4.36a3.68 3.68 0 0 1 3.11 1.51 5.53 5.53 0 0 1 .77 3.09H306a2.63 2.63 0 0 0 2.62 2.79 2.5 2.5 0 0 0 1.68-.59 3.28 3.28 0 0 0 .85-1.13zm-1.39-2.92a2.46 2.46 0 0 0-2.42-2.14 2.5 2.5 0 0 0-2.42 2.14zM325.63 104.53h-4.56v3.9h4.4v1.39h-4.4v6.54h-1.47v-13.22h6zM329.31 109.44v6.92h-1.43v-6.92h-.79v-1.31h.79v-3.59a2.85 2.85 0 0 1 .79-2.32 2.56 2.56 0 0 1 1.64-.54 2.77 2.77 0 0 1 1 .18v1.39a2.58 2.58 0 0 0-.93-.18 1 1 0 0 0-.91.44 2.48 2.48 0 0 0-.18 1.19v3.43h2v1.31zM341.22 116.36v-9l-2 .16v-4.42H346v13.22zM360.29 116.36h-13.1l5.43-4.82a14.93 14.93 0 0 0 1.86-1.86 3.12 3.12 0 0 0 .89-1.88 1 1 0 0 0-.32-.73 1.07 1.07 0 0 0-.79-.3 1 1 0 0 0-.85.4 2.46 2.46 0 0 0-.32 1.27h-4.68a5.65 5.65 0 0 1 1.29-3.84 6.39 6.39 0 0 1 4.7-1.74 6.18 6.18 0 0 1 4.5 1.67 4.43 4.43 0 0 1-.16 6.28 9.43 9.43 0 0 1-3.27 1.84v.14a18.21 18.21 0 0 1 2.8-.38l2-.1zM373.35 110.17a2.8 2.8 0 0 1 .81 2.14 3.75 3.75 0 0 1-1.15 2.8 6.61 6.61 0 0 1-4.82 1.55c-2.89 0-4.3-.91-5-1.61a4.71 4.71 0 0 1-1.29-3.25h4.84a1.62 1.62 0 0 0 .46 1.17 1.4 1.4 0 0 0 1.84 0 1.26 1.26 0 0 0 .36-.89 1.4 1.4 0 0 0-.32-.89 1.57 1.57 0 0 0-1.55-.34v-2.74a1.23 1.23 0 0 0 1.07-.2 1 1 0 0 0 .32-.81.86.86 0 0 0-.28-.65.88.88 0 0 0-.63-.22.86.86 0 0 0-.59.24 1 1 0 0 0-.26.77h-4.72a4.14 4.14 0 0 1 1.9-3.47 6.93 6.93 0 0 1 3.75-.91 6.13 6.13 0 0 1 4.4 1.43 3.35 3.35 0 0 1 1.09 2.44 2.78 2.78 0 0 1-.63 1.86 2.82 2.82 0 0 1-1 .69v.1a3.26 3.26 0 0 1 1.4.79zM383.77 112.51h1.63v1.35h-1.63v2.5h-1.47v-2.5h-6.78l8.24-11.46zm-1.47 0v-5.85l-4.18 5.85zM395.88 104.49h-4.24l-.85 2.85a3.58 3.58 0 0 1 .83-.08 4.29 4.29 0 0 1 4.36 4.58 4.63 4.63 0 0 1-4.82 4.76 4.48 4.48 0 0 1-3-1 5.5 5.5 0 0 1-1.15-1.35l1.17-.83a3.08 3.08 0 0 0 .89 1.07 3.24 3.24 0 0 0 2.14.79 3.28 3.28 0 0 0 3.25-3.39 3.13 3.13 0 0 0-3.25-3.25 4.32 4.32 0 0 0-2.56.91l1.92-6.38h5.25zM405.41 103.65l-3 4.22a3.79 3.79 0 0 1 1.17-.18 4.19 4.19 0 0 1 4.28 4.36 4.56 4.56 0 0 1-9.12 0 5.22 5.22 0 0 1 1.09-3l4.5-6.24zm1 8.44a3.09 3.09 0 0 0-6.18 0 3.09 3.09 0 1 0 6.18 0z" fill="#ceb182"/><path d="M184.39 139.55l-.36 1.64H179l4.54-13.19h5.31l4.72 13.22h-5.09l-.44-1.64zm1.94-7.16h-.18a6.9 6.9 0 0 1-.22 1.49l-.65 2.54h1.92l-.62-2.54a14.92 14.92 0 0 1-.24-1.49zM201 133a2.18 2.18 0 0 1-.16-.79v-.26h4.46v9.26h-4.44v-.32a4.08 4.08 0 0 1 .14-.89h-.14a3.42 3.42 0 0 1-2.77 1.43 3.48 3.48 0 0 1-2.62-1.09 5.23 5.23 0 0 1-1.39-3.75 5.3 5.3 0 0 1 1.45-3.82 3.68 3.68 0 0 1 2.74-1.11 3.06 3.06 0 0 1 2.58 1.37zm-2 4.54a1 1 0 0 0 .77.32 1.09 1.09 0 0 0 .77-.3 1.45 1.45 0 0 0 .44-1 1.3 1.3 0 0 0-.4-1 1.18 1.18 0 0 0-1.59 0 1.38 1.38 0 0 0-.4 1 1.3 1.3 0 0 0 .41.97zM212.18 128h5.77a5.92 5.92 0 0 1 3.94 1.11 3.41 3.41 0 0 1 1 2.58 2.56 2.56 0 0 1-1.7 2.64v.12a3.06 3.06 0 0 1 1.39.79 3 3 0 0 1 1 2.3 3.23 3.23 0 0 1-1.25 2.68 5.3 5.3 0 0 1-3.39 1h-6.72zm4.44 5.07h.75a1.4 1.4 0 0 0 .91-.3 1 1 0 0 0 .26-.69.88.88 0 0 0-.3-.69 1.57 1.57 0 0 0-.87-.22h-.75zm0 5h1a2 2 0 0 0 1-.22 1 1 0 0 0 .46-.89 1 1 0 0 0-.36-.79 1.71 1.71 0 0 0-1.05-.28h-1zM225.22 126.75h4.52v5.19a4.38 4.38 0 0 1-.22 1.29h.14a3 3 0 0 1 1-1.05 3.31 3.31 0 0 1 4.14.54 5.5 5.5 0 0 1 1.53 4 5.2 5.2 0 0 1-1.39 3.77 3.55 3.55 0 0 1-2.6 1 3 3 0 0 1-1.88-.59 3.16 3.16 0 0 1-1-1.09l-.14.06a2.17 2.17 0 0 1 .14.71v.65h-4.3zm6.32 8.72a1.26 1.26 0 0 0-.83-.36 1.11 1.11 0 0 0-.81.32 1.39 1.39 0 0 0-.38 1 1.75 1.75 0 0 0 .38 1.15 1.16 1.16 0 0 0 .79.32 1.11 1.11 0 0 0 .85-.38 1.42 1.42 0 0 0 .4-1 1.47 1.47 0 0 0-.4-1.05zM252.37 141a10.09 10.09 0 0 1-3.33.54 6.94 6.94 0 0 1-4.88-1.92 6.83 6.83 0 0 1-1.92-4.88 7.07 7.07 0 0 1 2-5 6.83 6.83 0 0 1 5-2 10 10 0 0 1 3.15.51l.14 5a4.19 4.19 0 0 0-2.79-1.31 2.6 2.6 0 0 0-1.92.81 2.8 2.8 0 0 0-.69 1.88 2.62 2.62 0 0 0 .77 1.9 2.73 2.73 0 0 0 2 .75 3.7 3.7 0 0 0 2.68-1.25zM261.28 141a4.89 4.89 0 0 1-2.28.48 5.39 5.39 0 0 1-3.9-1.37 4.62 4.62 0 0 1-1.33-3.39 5.18 5.18 0 0 1 1.43-3.72 4.83 4.83 0 0 1 3.59-1.33 7.42 7.42 0 0 1 2.62.48v3.77a2.44 2.44 0 0 0-1.68-.73 1.31 1.31 0 0 0-1 .36 1.49 1.49 0 0 0-.38 1 1.35 1.35 0 0 0 .38 1 1.31 1.31 0 0 0 1 .4 2.76 2.76 0 0 0 1.78-.73zM268.34 128H271a7.19 7.19 0 0 1 4.88 1.55 6.45 6.45 0 0 1 2.26 5.07 6.29 6.29 0 0 1-2.32 5.07 6.62 6.62 0 0 1-4.84 1.53h-2.68zm1.47 11.83h1.29a5.65 5.65 0 0 0 3.79-1.19 5.06 5.06 0 0 0 1.78-4c0-3.17-2.22-5.23-5.57-5.23h-1.3zM286.81 126.75h1.43v14.45h-1.43V140a3.47 3.47 0 0 1-2.81 1.39c-2.08 0-4-1.47-4-4.36a4 4 0 0 1 4-4.3 3.4 3.4 0 0 1 2.81 1.37zm-5.35 10.33c0 1.76 1 3.09 2.7 3.09a3.08 3.08 0 0 0 0-6.12 2.73 2.73 0 0 0-2.7 3.02zM302.76 129.36h-5.39v3.92h5.23v1.39h-5.23v5.13h5.39v1.39h-6.86V128h6.86zM312.39 139.09a4.91 4.91 0 0 1-1 1.33 4 4 0 0 1-2.73 1 3.94 3.94 0 0 1-4.06-4.3c0-2.46 1.51-4.36 4-4.36a3.68 3.68 0 0 1 3.11 1.51 5.53 5.53 0 0 1 .77 3.09H306a2.63 2.63 0 0 0 2.62 2.79 2.5 2.5 0 0 0 1.68-.59 3.28 3.28 0 0 0 .85-1.13zm-1.39-2.91a2.46 2.46 0 0 0-2.42-2.14 2.5 2.5 0 0 0-2.42 2.14zM325.63 129.36h-4.56v3.9h4.4v1.39h-4.4v6.54h-1.47V128h6zM329.31 134.28v6.92h-1.43v-6.92h-.79V133h.79v-3.59a2.85 2.85 0 0 1 .79-2.32 2.56 2.56 0 0 1 1.64-.54 2.77 2.77 0 0 1 1 .18v1.39a2.58 2.58 0 0 0-.93-.18 1 1 0 0 0-.91.44 2.48 2.48 0 0 0-.18 1.19V133h2v1.31zM341.22 141.19v-9l-2 .16V128H346v13.22zM360.29 141.19h-13.1l5.43-4.82a14.93 14.93 0 0 0 1.86-1.86 3.12 3.12 0 0 0 .89-1.88 1 1 0 0 0-.32-.73 1.07 1.07 0 0 0-.79-.3 1 1 0 0 0-.85.4 2.46 2.46 0 0 0-.32 1.27h-4.68a5.65 5.65 0 0 1 1.29-3.84 6.39 6.39 0 0 1 4.7-1.74 6.18 6.18 0 0 1 4.5 1.67 4.43 4.43 0 0 1-.16 6.28 9.43 9.43 0 0 1-3.27 1.84v.14a18.21 18.21 0 0 1 2.8-.38l2-.1zM373.35 135a2.8 2.8 0 0 1 .81 2.14 3.75 3.75 0 0 1-1.15 2.8 6.61 6.61 0 0 1-4.82 1.55c-2.89 0-4.3-.91-5-1.61a4.71 4.71 0 0 1-1.29-3.25h4.84a1.62 1.62 0 0 0 .46 1.17 1.4 1.4 0 0 0 1.84 0 1.26 1.26 0 0 0 .36-.89 1.4 1.4 0 0 0-.32-.89 1.57 1.57 0 0 0-1.55-.34v-2.74a1.23 1.23 0 0 0 1.07-.2 1 1 0 0 0 .32-.81.86.86 0 0 0-.28-.65.88.88 0 0 0-.64-.28.86.86 0 0 0-.59.24 1 1 0 0 0-.26.77h-4.72a4.14 4.14 0 0 1 1.9-3.47 6.93 6.93 0 0 1 3.75-.91 6.13 6.13 0 0 1 4.4 1.43 3.35 3.35 0 0 1 1.09 2.44 2.78 2.78 0 0 1-.63 1.86 2.82 2.82 0 0 1-1 .69v.1a3.26 3.26 0 0 1 1.41.85zM383.77 137.35h1.63v1.35h-1.63v2.5h-1.47v-2.5h-6.78l8.24-11.46zm-1.47 0v-5.85l-4.18 5.85zM395.88 129.32h-4.24l-.85 2.85a3.58 3.58 0 0 1 .83-.08 4.29 4.29 0 0 1 4.36 4.58 4.63 4.63 0 0 1-4.82 4.76 4.48 4.48 0 0 1-3-1 5.5 5.5 0 0 1-1.15-1.35l1.17-.83a3.08 3.08 0 0 0 .89 1.07 3.24 3.24 0 0 0 2.14.79 3.28 3.28 0 0 0 3.25-3.39 3.13 3.13 0 0 0-3.25-3.25 4.32 4.32 0 0 0-2.56.91l1.92-6.38h5.25zM405.41 128.49l-3 4.22a3.79 3.79 0 0 1 1.17-.18 4.19 4.19 0 0 1 4.28 4.36 4.56 4.56 0 0 1-9.12 0 5.22 5.22 0 0 1 1.09-3l4.5-6.24zm1 8.44a3.09 3.09 0 0 0-6.18 0 3.09 3.09 0 1 0 6.18 0z" fill="#bd965a"/></svg>