<svg class="icon--knowledge" xmlns="http://www.w3.org/2000/svg" viewBox="0 0 100 100"><title>javascript</title><path d="M46.54 73.89c0 6.33-2.21 8.85-6.64 8.85-3 0-5.31-1.39-7.15-4.68L29 80.72a12.19 12.19 0 0 0 11.45 6.64c8.1 0 11.45-5.82 11.45-13V45.11h-5.36zM80.13 64.46l-5.88-2.53C71 60.54 67.35 59 67.35 55c0-3.73 3.1-6.07 7.72-6.07a13.23 13.23 0 0 1 9.42 3.92l2.85-3.42a17.22 17.22 0 0 0-12.27-5.12c-7.53 0-13 4.68-13 11 0 6.07 4.49 9 8.41 10.69l5.95 2.59c3.92 1.77 6.89 3.1 6.89 7.34 0 4-3.23 6.77-8.67 6.77a16.25 16.25 0 0 1-11.45-5.19L60 81.22a20.12 20.12 0 0 0 14.55 6.13c8.73 0 14.1-5.25 14.1-11.83.01-6.12-3.72-8.97-8.52-11.06z" fill="none"/><path d="M85 3.5H15A10.51 10.51 0 0 0 4.5 14v72A10.51 10.51 0 0 0 15 96.5h70A10.51 10.51 0 0 0 95.5 86V14A10.51 10.51 0 0 0 85 3.5zM51.86 74.39c0 7.15-3.35 13-11.45 13A12.19 12.19 0 0 1 29 80.72l3.79-2.66c1.83 3.29 4.17 4.68 7.15 4.68 4.43 0 6.64-2.53 6.64-8.85V45.11h5.31zm22.7 13A20.12 20.12 0 0 1 60 81.22l3.16-3.67a16.25 16.25 0 0 0 11.45 5.19c5.44 0 8.67-2.72 8.67-6.77 0-4.24-3-5.57-6.89-7.34L70.45 66C66.53 64.4 62 61.43 62 55.35c0-6.33 5.5-11 13-11a17.22 17.22 0 0 1 12.27 5.12l-2.85 3.42A13.23 13.23 0 0 0 75.07 49c-4.62 0-7.72 2.34-7.72 6.07 0 4 3.61 5.5 6.89 6.89l5.88 2.53c4.81 2.09 8.54 4.93 8.54 11.07 0 6.55-5.37 11.8-14.1 11.8z"/></svg>
