<svg class="icon--knowledge" xmlns="http://www.w3.org/2000/svg" viewBox="0 0 100 100"><title>sass</title><path d="M50 8A42 42 0 1 1 8 50 42 42 0 0 1 50 8zm-8.35 56a10.73 10.73 0 0 1-.08 6.27l-.23.63c-.08.21-.18.42-.27.61a11.74 11.74 0 0 1-1.94 2.83C36.68 77 33.27 78 31.81 77.16s-.79-4.67 2-7.66a28.52 28.52 0 0 1 7.42-5.28l.38-.21zm34.69-38c-1.9-7.47-14.27-9.92-26-5.76-7 2.48-14.51 6.36-19.93 11.43C24 37.68 23 42.93 23.38 45.13c1.5 7.74 12.1 12.8 16.46 16.55-1.29.63-10.69 5.35-12.9 10.24-2.36 5.14.37 8.82 2.15 9.29 5.51 1.52 11.18-1.26 14.23-5.77a14.53 14.53 0 0 0 1.42-12.86 16.38 16.38 0 0 1 6.4-.37c7.35.84 8.82 5.46 8.5 7.35a5.06 5.06 0 0 1-2.36 3.31c-.52.31-.68.42-.63.63s.32.32.73.26a5.82 5.82 0 0 0 4-5.14c.16-4.51-4.15-9.55-11.81-9.45a18.88 18.88 0 0 0-6.56.89 1.23 1.23 0 0 0-.37-.37C37.92 54.61 29.15 51 29.52 44.27c.1-2.47 1-9 16.8-16.85 13-6.46 23.31-4.67 25.09-.73 2.57 5.62-5.51 16.06-19 17.59-5.14.58-7.82-1.42-8.5-2.15s-.84-.84-1.1-.68c-.42.21-.16.89 0 1.31a8.08 8.08 0 0 0 4.88 3.83c2.47.79 8.51 1.26 15.75-1.57 8.14-3.15 14.49-11.92 12.65-19.27z"/></svg>
