<svg class="icon--social" xmlns="http://www.w3.org/2000/svg" viewBox="0 0 100 100"><title>CodePen</title><path d="M95.79 64a4 4 0 0 1-1.74 3.27L52.2 95.13a4 4 0 0 1-4.4 0L5.94 67.22A4 4 0 0 1 4.21 64V36a4 4 0 0 1 1.74-3.27L47.8 4.87a4 4 0 0 1 4.4 0l41.86 27.91A4 4 0 0 1 95.79 36zM21.94 50l-9.86-6.59v13.18zm24.13-16.15V15.5L15.25 36 29 45.25zm0 50.65V66.15L29 54.75 15.25 64zM63.9 50L50 40.7 36.1 50 50 59.3zm20.85-14L53.93 15.5v18.35L71 45.25zm0 27.9L71 54.75l-17.07 11.4V84.5zm3.17-7.36V43.41L78.06 50z"/></svg>
