<svg class="icon--knowledge" xmlns="http://www.w3.org/2000/svg" viewBox="0 0 100 100"><title>Illustrator</title><path d="M45.25 43.25c-.84-2.64-1.54-5.6-2.19-8.11h-.13c-.64 2.51-1.29 5.53-2.06 8.11l-3.34 10.67h11.13z" fill="none"/><path d="M7 94h86V8H7zm68.15-21.81h-7.92V40.87h7.91zm-3.93-44.38a4.28 4.28 0 1 1 0 8.56h-.06a4.28 4.28 0 1 1 .06-8.56zm-33 1h10.1l14.1 43.38h-8.49L50 59.91H36.24l-3.73 12.28h-8.17z" fill="none"/><path d="M3 4v94h94V4zm90 90H7V8h86z"/><path d="M36.24 59.91H50l3.92 12.29h8.49L48.33 28.83h-10.1L24.34 72.19h8.17zm4.63-16.66c.77-2.57 1.42-5.6 2.06-8.11h.13c.64 2.51 1.35 5.47 2.19 8.11l3.41 10.68H37.53zM67.23 40.87h7.91V72.2h-7.91zM71.16 36.36h.06a4.41 4.41 0 1 0-.06 0z"/><text transform="translate(21.72 -8.15)" font-size="64.337" font-family="MyriadPro-Semibold,Myriad Pro" font-weight="700">A</text><text transform="translate(59.72 -8.15)" font-size="64.337" font-family="MyriadPro-Semibold,Myriad Pro" font-weight="700">i</text></svg>
