<svg class="icon--logo" xmlns="http://www.w3.org/2000/svg" viewBox="0 0 100 100"><title>icon-js-logo</title><path d="M61.28 51.88c-5.81 6.88-21.82 27.93-21.87 28-.4.47-.63.23-.42-.4 3.37-10.22 7.44-20.82 11.55-30.73l10.06 1.4a1.08 1.08 0 0 1 .68 1.76zM41.61 41.21a1.34 1.34 0 0 1-.86-2.21c3.84-4.76 12.94-15.24 20.18-23.5 1.74-1.91 2.84-2.25 1 .75A217.09 217.09 0 0 0 47.26 42zm29.2 4.29l-17.88-2.36C60.6 25.06 69.27 7.58 70.86 4.35a.11.11 0 0 0-.18-.12L29.6 42.88a1.89 1.89 0 0 0 1.11 3.21l13.74 1.81A339.15 339.15 0 0 0 26.9 96.29l-.18.56c-.26.86 1.26 1.56 1.9.86 9.27-10.43 9.65-11.13 43.39-49a2 2 0 0 0-1.19-3.23z" fill="#fff"/></svg>
