<svg data-name="Layer 1" xmlns="http://www.w3.org/2000/svg" viewBox="0 0 100 100"><title>Indesign</title><path d="M7 94h86V8H7zm48.3-53.52c4.31 0 7.4 1.74 8.81 4.05h.13V26.78h7.91V63.7c0 3.22.13 6.69.26 8.81h-7l-.39-5h-.13a11.25 11.25 0 0 1-10.16 5.66c-7.53 0-13.45-6.37-13.45-16-.07-10.45 6.49-16.69 14.02-16.69zM27.59 29.16h7.91v43.36h-7.91z" fill="none"/><path d="M57.16 66.85A7 7 0 0 0 64 61.26a8.84 8.84 0 0 0 .26-2.32v-4.7a11.83 11.83 0 0 0-.26-2.12 6.94 6.94 0 0 0-6.82-5.53c-5.08 0-7.91 4.5-7.91 10.29s2.88 9.97 7.89 9.97z" fill="none"/><path d="M3 4v94h94V4zm90 90H7V8h86z"/><path d="M27.59 29.16h7.91v43.36h-7.91zM54.72 73.22a11.25 11.25 0 0 0 10.16-5.66H65l.39 5h7c-.13-2.12-.26-5.6-.26-8.81V26.78h-7.89v17.75h-.13c-1.42-2.32-4.5-4.05-8.81-4.05-7.53 0-14.09 6.24-14 16.73-.03 9.64 5.89 16.01 13.42 16.01zm2.51-26.63A6.94 6.94 0 0 1 64 52.12a11.83 11.83 0 0 1 .19 2.12v4.7a8.84 8.84 0 0 1-.19 2.32 7 7 0 0 1-6.82 5.6c-5 0-7.85-4.18-7.85-10s2.82-10.27 7.9-10.27z"/><text transform="translate(21.72 -8.15)" font-size="64.337" font-family="MyriadPro-Semibold,Myriad Pro" font-weight="700">A</text><text transform="translate(59.72 -8.15)" font-size="64.337" font-family="MyriadPro-Semibold,Myriad Pro" font-weight="700">i</text></svg>