<svg class="icon--knowledge" xmlns="http://www.w3.org/2000/svg" viewBox="0 0 100 100"><title>twitter</title><path data-name="Twitter (alt)" d="M85.58 46.49c5.15-.43 8.66-2.77 10-6-1.86 1.15-7.65 2.4-10.85 1.2-.16-.74-.33-1.46-.5-2.1-2.44-9-10.77-16.15-19.51-15.27.7-.28 1.42-.56 2.14-.8 1-.34 6.6-1.26 5.72-3.26-.74-1.7-7.58 1.36-8.92 1.74 1.71-.64 4.55-1.74 4.85-3.72a13.58 13.58 0 0 0-7.2 3.41A5 5 0 0 0 62.69 19c-7 4.47-11.09 13.49-14.4 22.24a34.17 34.17 0 0 0-7-5.6 182.52 182.52 0 0 0-23.57-10.41c-.33 3.59 1.77 8.39 7.87 11.57a19.13 19.13 0 0 0-5.65.67c.78 4.13 3.35 7.52 10.3 9.16-3.18.21-4.82.93-6.31 2.49 1.45 2.86 5 6.24 11.33 5.55-7.06 3-2.87 8.68 2.86 7.84A24.39 24.39 0 0 1 4 63.42C27.16 95 77.51 82.1 85 51.69c5.63.06 8.93-2 11-4.14a22.4 22.4 0 0 1-10.42-1.06z"/></svg>
