<svg class="icon--knowledge" xmlns="http://www.w3.org/2000/svg" viewBox="0 0 100 100"><title>Photoshop</title><path d="M44.23 41.28c0-4.76-3.35-7.33-8.81-7.33a21.87 21.87 0 0 0-4.57.39v14.53a13.2 13.2 0 0 0 3.86.39c5.91 0 9.52-2.96 9.52-7.98z" fill="none"/><path d="M7 94h86V8H7zm57.2-35.6c-6.11-2.06-8.62-5.4-8.62-9.14 0-5.53 4.57-9.78 11.84-9.78a18.08 18.08 0 0 1 8.36 1.87l-1.61 5.53a13.85 13.85 0 0 0-6.63-1.8c-2.83 0-4.37 1.42-4.37 3.35s1.48 2.89 5.47 4.37c5.73 2 8.3 4.89 8.36 9.52 0 5.73-4.44 9.84-12.74 9.84A20.21 20.21 0 0 1 54.75 70l1.61-5.79a17.15 17.15 0 0 0 8 2.32c3.47 0 5-1.48 5-3.54s-1.3-3.18-5.16-4.59zM23 28.74a69.72 69.72 0 0 1 12.09-.9c5.79 0 10 1.22 12.74 3.54A12.25 12.25 0 0 1 52.07 41c0 4.12-1.29 7.46-3.67 9.78-3.22 3.15-8.11 4.7-13.7 4.7a17.3 17.3 0 0 1-3.86-.32v16.4H23z" fill="none"/><path d="M3 4v94h94V4zm90 90H7V8h86z"/><path d="M30.85 55.11a17.3 17.3 0 0 0 3.86.32c5.6 0 10.49-1.54 13.7-4.7 2.38-2.32 3.67-5.66 3.67-9.78a12.25 12.25 0 0 0-4.25-9.59c-2.77-2.32-6.95-3.54-12.74-3.54a69.72 69.72 0 0 0-12.09.9v42.8h7.85zm0-20.78a21.87 21.87 0 0 1 4.57-.39c5.47 0 8.81 2.57 8.81 7.33 0 5-3.6 8-9.52 8a13.2 13.2 0 0 1-3.86-.39zM64.33 66.5a17.15 17.15 0 0 1-8-2.32L54.75 70a20.21 20.21 0 0 0 9.52 2.19C72.56 72.16 77 68 77 62.32c-.06-4.63-2.64-7.53-8.36-9.52-4-1.48-5.47-2.38-5.47-4.37s1.54-3.35 4.37-3.35a13.85 13.85 0 0 1 6.63 1.8l1.61-5.53a18.08 18.08 0 0 0-8.36-1.87c-7.27 0-11.84 4.25-11.84 9.78 0 3.73 2.51 7.08 8.62 9.14 3.86 1.42 5.15 2.44 5.15 4.57s-1.55 3.53-5.02 3.53z"/><text transform="translate(21.72 -8.15)" font-size="64.337" font-family="MyriadPro-Semibold,Myriad Pro" font-weight="700">A</text><text transform="translate(59.72 -8.15)" font-size="64.337" font-family="MyriadPro-Semibold,Myriad Pro" font-weight="700">i</text></svg>
