<svg class="icon--knowledge" xmlns="http://www.w3.org/2000/svg" viewBox="0 0 100 100"><title>gulp</title><path d="M60.59 79.86l2.5-4.23s-5.67 2.31-15.17 2.31-15.09-2.22-15.09-2.22l2.8 4.62 1 14.56c0 1.58 5.17 2.81 11.53 2.81s11.55-1.23 11.55-2.81l.9-15zM63 52.36c-3 .18-4.53 3.53-6 7-.56 1.29-2.47 6.78-3.72 6.1s1.62-5.19 2.43-7.87c-.93.68-4.34 3.31-5.22.84C49 59.7 46 60.34 46.34 57.19c-.75 1.34-2.44 3.22-4.47 2.4-2.65-1 1.55-9.41 2.59-9s-.21 2.34-.53 3.1c-.73 1.64-1.57 3.74-1 4.15.94.76 3.55-2.75 3.61-2.81.49-.64 1.88-4.79 3-4.33s-2.8 6-1.34 7.13c.29.23 1.5-.12 2.24-.94.47-.47.31-1.64 1.88-5.38s3-8.42 4.08-8.07.19 2.75-.2 3.68c-1.82 4.21-5 11.11-3.5 10.58s2.24-.53 3.71-2.22S57.77 51 58.77 51s.82 1 .59 1.64c.94-1.05 4.53-3.39 5.35-1.11 1 2.69-5.12 6.61-3.59 6.37a9.23 9.23 0 0 0 4.94-3.1l2.82-25.37S66 31.81 47.83 31.81s-20.77-2.28-20.77-2.28l2.41 23.15c1.29-3.62 4.35-11 9.12-10.7 2.18.12 5.12 4.33 2.59 4.44-1.06.06-1.18-2.1-2.41-2.4a3.94 3.94 0 0 0-3 1.34c-1.59 1.58-5.12 7.83-4.65 10.93.59 4 5.53-1.34 6.36-2.92.59-1.11 1-4.44 2.24-4.09s-.12 3.8-1.06 6.78c-1.06 3.39-1.59 7-2.88 6.55s.82-4.79.71-5.55c-1.24 1.17-3.47 4-6.41 2.57l1.47 14.44s4 3.1 16 3.1 16.18-3.1 16.18-3.1l1.87-16.71c-1.53 1.52-6.36 4.15-6.65 1.17-.24-2.4 5.24-5.85 3.82-5.9zm6.19-45.75L58.74 17.54 56.83 25c7.39.47 12.53 1.5 12.53 2.71 0 1.64-9.49 3-21.18 3S27 29.29 27 27.65s9.49-3 21.18-3c1.66 0 3.31 0 5 .06l2.2-8.89L66.46 4.15c.27-.35 1.1-.06 1.86.58s1.18 1.34.94 1.7v.12zM54.13 29.24a7.23 7.23 0 0 1-2.4-.32.52.52 0 0 1-.14-.35.46.46 0 0 1 .35-.43l.18.29c-.08 0-.12.06-.13.09s1.24.27 2.18.26 2.09-.09 2.09-.25-.09-.09-.24-.13l.18-.28c.25.08.46.22.46.47 0 .43-.55.5-.91.55s-1.62.09-1.62.09z"/></svg>
