<svg class="icon--knowledge" xmlns="http://www.w3.org/2000/svg" viewBox="0 0 100 100"><title>database</title><path d="M89.34 17.22v6.56C89.34 31 71.72 36.89 50 36.89S10.66 31 10.66 23.77v-6.55C10.66 10 28.28 4.11 50 4.11S89.34 10 89.34 17.22zm0 17.52v8.71c0 7.22-17.62 13.11-39.34 13.11s-39.34-5.9-39.34-13.12v-8.7c8.45 5.94 23.92 8.71 39.34 8.71s30.89-2.77 39.34-8.71zm0 19.67v8.71c0 7.22-17.62 13.11-39.34 13.11s-39.34-5.9-39.34-13.12v-8.7c8.45 5.94 23.92 8.71 39.34 8.71s30.89-2.77 39.34-8.71zm0 19.67v8.71c0 7.21-17.62 13.1-39.34 13.1S10.66 90 10.66 82.78v-8.71C19.11 80 34.58 82.78 50 82.78S80.89 80 89.34 74.07z"/></svg>
