<svg class="icon--social" xmlns="http://www.w3.org/2000/svg" viewBox="0 0 100 100"><title>linkedin</title><path data-name="LinkedIn (alt)" d="M89.21 4h-78.4A6.71 6.71 0 0 0 4 10.59v78.82A6.7 6.7 0 0 0 10.81 96h78.4A6.69 6.69 0 0 0 96 89.41V10.59A6.69 6.69 0 0 0 89.21 4zM31.9 81H18V39.47h13.9zm-7-47.22h-.09c-4.66 0-7.69-3.19-7.69-7.18s3.12-7.18 7.87-7.18 7.68 3.11 7.77 7.18-2.97 7.2-7.82 7.2zM82 81H68.1V58.79c0-5.59-2-9.4-7-9.4a7.59 7.59 0 0 0-7.13 5.05 9.3 9.3 0 0 0-.47 3.37V81H39.59s.17-37.64 0-41.55h13.88v5.9A13.81 13.81 0 0 1 66 38.5c9.15 0 16 5.94 16 18.7zM53.39 45.5l.08-.13v.13z"/></svg>
